<mxfile host="Electron" modified="2024-05-15T16:37:48.410Z" agent="Mozilla/5.0 (Macintosh; Intel Mac OS X 10_15_7) AppleWebKit/537.36 (KHTML, like Gecko) draw.io/24.4.0 Chrome/120.0.6099.109 Electron/28.1.0 Safari/537.36" etag="SeTDT2TsroDg4evokeXW" version="24.4.0" type="device">
  <diagram name="Page-1" id="DgvM_JfmaLd-U3aUq5br">
    <mxGraphModel dx="3575" dy="3700" grid="1" gridSize="10" guides="1" tooltips="1" connect="1" arrows="1" fold="1" page="1" pageScale="1" pageWidth="850" pageHeight="1100" math="0" shadow="0">
      <root>
        <mxCell id="0" />
        <mxCell id="1" parent="0" />
        <mxCell id="WIpk6FryHPEbsidNHlYV-15" value="" style="group" vertex="1" connectable="0" parent="1">
          <mxGeometry x="-750" y="-1090" width="2057.53" height="1386.14" as="geometry" />
        </mxCell>
        <mxCell id="WIpk6FryHPEbsidNHlYV-14" value="" style="rounded=0;whiteSpace=wrap;html=1;" vertex="1" parent="WIpk6FryHPEbsidNHlYV-15">
          <mxGeometry y="240" width="2057.53" height="1146.14" as="geometry" />
        </mxCell>
        <mxCell id="53nCyL3O7BwKtmrme-u4-159" value="" style="group;fillColor=none;" parent="WIpk6FryHPEbsidNHlYV-15" vertex="1" connectable="0">
          <mxGeometry x="588.73" y="1160" width="900" height="200" as="geometry" />
        </mxCell>
        <mxCell id="WIpk6FryHPEbsidNHlYV-4" value="" style="rounded=0;whiteSpace=wrap;html=1;" vertex="1" parent="53nCyL3O7BwKtmrme-u4-159">
          <mxGeometry x="-20" width="920" height="200" as="geometry" />
        </mxCell>
        <mxCell id="53nCyL3O7BwKtmrme-u4-157" value="" style="group" parent="53nCyL3O7BwKtmrme-u4-159" vertex="1" connectable="0">
          <mxGeometry y="50" width="876" height="140" as="geometry" />
        </mxCell>
        <mxCell id="53nCyL3O7BwKtmrme-u4-130" value="&lt;font style=&quot;font-size: 12px;&quot;&gt;&lt;b&gt;3&lt;/b&gt;&lt;/font&gt;" style="ellipse;whiteSpace=wrap;html=1;aspect=fixed;fillColor=#FFFFFF;strokeColor=#FF8000;fontColor=#000000;" parent="53nCyL3O7BwKtmrme-u4-157" vertex="1">
          <mxGeometry y="60" width="20" height="20" as="geometry" />
        </mxCell>
        <mxCell id="53nCyL3O7BwKtmrme-u4-131" value="&lt;font style=&quot;font-size: 12px;&quot;&gt;&lt;b&gt;4&lt;/b&gt;&lt;/font&gt;" style="ellipse;whiteSpace=wrap;html=1;aspect=fixed;fillColor=#FFFFFF;strokeColor=#FF8000;fontColor=#000000;" parent="53nCyL3O7BwKtmrme-u4-157" vertex="1">
          <mxGeometry y="90" width="20" height="20" as="geometry" />
        </mxCell>
        <mxCell id="53nCyL3O7BwKtmrme-u4-132" value="&lt;font style=&quot;font-size: 12px;&quot;&gt;&lt;b&gt;5&lt;/b&gt;&lt;/font&gt;" style="ellipse;whiteSpace=wrap;html=1;aspect=fixed;fillColor=#FFFFFF;strokeColor=#FF8000;fontColor=#000000;" parent="53nCyL3O7BwKtmrme-u4-157" vertex="1">
          <mxGeometry y="120" width="20" height="20" as="geometry" />
        </mxCell>
        <mxCell id="53nCyL3O7BwKtmrme-u4-133" value="&lt;font style=&quot;font-size: 12px;&quot;&gt;&lt;b&gt;6&lt;/b&gt;&lt;/font&gt;" style="ellipse;whiteSpace=wrap;html=1;aspect=fixed;fillColor=#FFFFFF;strokeColor=#FF8000;fontColor=#000000;" parent="53nCyL3O7BwKtmrme-u4-157" vertex="1">
          <mxGeometry x="445" y="1" width="20" height="20" as="geometry" />
        </mxCell>
        <mxCell id="53nCyL3O7BwKtmrme-u4-134" value="&lt;font style=&quot;font-size: 12px;&quot;&gt;&lt;b&gt;7&lt;/b&gt;&lt;/font&gt;" style="ellipse;whiteSpace=wrap;html=1;aspect=fixed;fillColor=#FFFFFF;strokeColor=#FF8000;fontColor=#000000;" parent="53nCyL3O7BwKtmrme-u4-157" vertex="1">
          <mxGeometry x="445" y="31" width="20" height="20" as="geometry" />
        </mxCell>
        <mxCell id="53nCyL3O7BwKtmrme-u4-135" value="&lt;font style=&quot;font-size: 12px;&quot;&gt;&lt;b&gt;8&lt;/b&gt;&lt;/font&gt;" style="ellipse;whiteSpace=wrap;html=1;aspect=fixed;fillColor=#FFFFFF;strokeColor=#FF8000;fontColor=#000000;" parent="53nCyL3O7BwKtmrme-u4-157" vertex="1">
          <mxGeometry x="445" y="61" width="20" height="20" as="geometry" />
        </mxCell>
        <mxCell id="53nCyL3O7BwKtmrme-u4-136" value="&lt;font style=&quot;font-size: 12px;&quot;&gt;&lt;b&gt;2&lt;/b&gt;&lt;/font&gt;" style="ellipse;whiteSpace=wrap;html=1;aspect=fixed;fillColor=#FFFFFF;strokeColor=#FF8000;fontColor=#000000;" parent="53nCyL3O7BwKtmrme-u4-157" vertex="1">
          <mxGeometry y="30" width="20" height="20" as="geometry" />
        </mxCell>
        <mxCell id="53nCyL3O7BwKtmrme-u4-137" value="&lt;font style=&quot;font-size: 12px;&quot;&gt;&lt;b&gt;1&lt;/b&gt;&lt;/font&gt;" style="ellipse;whiteSpace=wrap;html=1;aspect=fixed;fillColor=#FFFFFF;strokeColor=#FF8000;fontColor=#000000;" parent="53nCyL3O7BwKtmrme-u4-157" vertex="1">
          <mxGeometry width="20" height="20" as="geometry" />
        </mxCell>
        <mxCell id="53nCyL3O7BwKtmrme-u4-138" value="&lt;font color=&quot;#000000&quot; size=&quot;3&quot;&gt;Collector requests each csv report every minute.&lt;/font&gt;" style="rounded=0;whiteSpace=wrap;html=1;fillColor=none;shadow=1;strokeColor=none;align=left;" parent="53nCyL3O7BwKtmrme-u4-157" vertex="1">
          <mxGeometry x="27" width="403" height="20" as="geometry" />
        </mxCell>
        <mxCell id="53nCyL3O7BwKtmrme-u4-140" value="&lt;font color=&quot;#000000&quot; size=&quot;3&quot;&gt;For each line in report, Collector places msg on topic.&lt;/font&gt;" style="rounded=0;whiteSpace=wrap;html=1;fillColor=none;shadow=1;strokeColor=none;align=left;" parent="53nCyL3O7BwKtmrme-u4-157" vertex="1">
          <mxGeometry x="27" y="30" width="404" height="20" as="geometry" />
        </mxCell>
        <mxCell id="53nCyL3O7BwKtmrme-u4-141" value="&lt;font color=&quot;#000000&quot; size=&quot;3&quot;&gt;Processor applies business rules to incoming item.&lt;/font&gt;" style="rounded=0;whiteSpace=wrap;html=1;fillColor=none;shadow=1;strokeColor=none;align=left;" parent="53nCyL3O7BwKtmrme-u4-157" vertex="1">
          <mxGeometry x="27" y="60" width="404" height="20" as="geometry" />
        </mxCell>
        <mxCell id="53nCyL3O7BwKtmrme-u4-142" value="&lt;font color=&quot;#000000&quot; size=&quot;3&quot;&gt;&lt;span style=&quot;caret-color: rgb(255, 255, 255);&quot;&gt;Processor places processed data in a msg on topic.&lt;/span&gt;&lt;/font&gt;" style="rounded=0;whiteSpace=wrap;html=1;fillColor=none;shadow=1;strokeColor=none;align=left;" parent="53nCyL3O7BwKtmrme-u4-157" vertex="1">
          <mxGeometry x="27" y="90" width="404" height="20" as="geometry" />
        </mxCell>
        <mxCell id="53nCyL3O7BwKtmrme-u4-144" value="&lt;font color=&quot;#000000&quot; size=&quot;3&quot;&gt;API transforms the incoming item to match DB schema.&lt;/font&gt;" style="rounded=0;whiteSpace=wrap;html=1;fillColor=none;shadow=1;strokeColor=none;align=left;" parent="53nCyL3O7BwKtmrme-u4-157" vertex="1">
          <mxGeometry x="27" y="120" width="404" height="20" as="geometry" />
        </mxCell>
        <mxCell id="53nCyL3O7BwKtmrme-u4-145" value="&lt;font color=&quot;#000000&quot; size=&quot;3&quot;&gt;API inserts the transformed record into the database.&lt;/font&gt;" style="rounded=0;whiteSpace=wrap;html=1;fillColor=none;shadow=1;strokeColor=none;align=left;" parent="53nCyL3O7BwKtmrme-u4-157" vertex="1">
          <mxGeometry x="472" y="1" width="404" height="20" as="geometry" />
        </mxCell>
        <mxCell id="53nCyL3O7BwKtmrme-u4-146" value="&lt;font color=&quot;#000000&quot; size=&quot;3&quot;&gt;Processor applies business rules to incoming item.&lt;/font&gt;" style="rounded=0;whiteSpace=wrap;html=1;fillColor=none;shadow=1;strokeColor=none;align=left;" parent="53nCyL3O7BwKtmrme-u4-157" vertex="1">
          <mxGeometry x="472" y="31" width="404" height="20" as="geometry" />
        </mxCell>
        <mxCell id="53nCyL3O7BwKtmrme-u4-147" value="&lt;font color=&quot;#000000&quot; size=&quot;3&quot;&gt;&lt;span style=&quot;caret-color: rgb(255, 255, 255);&quot;&gt;Web service requests data from API.&lt;/span&gt;&lt;/font&gt;" style="rounded=0;whiteSpace=wrap;html=1;fillColor=none;shadow=1;strokeColor=none;align=left;" parent="53nCyL3O7BwKtmrme-u4-157" vertex="1">
          <mxGeometry x="472" y="61" width="404" height="20" as="geometry" />
        </mxCell>
        <mxCell id="53nCyL3O7BwKtmrme-u4-154" value="&lt;font style=&quot;font-size: 12px;&quot;&gt;&lt;b&gt;9&lt;/b&gt;&lt;/font&gt;" style="ellipse;whiteSpace=wrap;html=1;aspect=fixed;fillColor=#FFFFFF;strokeColor=#FF8000;fontColor=#000000;" parent="53nCyL3O7BwKtmrme-u4-157" vertex="1">
          <mxGeometry x="445" y="91" width="20" height="20" as="geometry" />
        </mxCell>
        <mxCell id="53nCyL3O7BwKtmrme-u4-155" value="&lt;font color=&quot;#000000&quot; size=&quot;3&quot;&gt;&lt;span style=&quot;caret-color: rgb(255, 255, 255);&quot;&gt;API service requests data from database.&amp;nbsp;&lt;/span&gt;&lt;/font&gt;" style="rounded=0;whiteSpace=wrap;html=1;fillColor=none;shadow=1;strokeColor=none;align=left;" parent="53nCyL3O7BwKtmrme-u4-157" vertex="1">
          <mxGeometry x="472" y="91" width="404" height="20" as="geometry" />
        </mxCell>
        <mxCell id="53nCyL3O7BwKtmrme-u4-158" value="&lt;font style=&quot;font-size: 18px;&quot;&gt;High-Level Process Flow&lt;/font&gt;" style="text;html=1;align=center;verticalAlign=middle;whiteSpace=wrap;rounded=0;" parent="53nCyL3O7BwKtmrme-u4-159" vertex="1">
          <mxGeometry x="1" width="880" height="30" as="geometry" />
        </mxCell>
        <mxCell id="53nCyL3O7BwKtmrme-u4-19" value="&lt;font style=&quot;font-size: 24px;&quot;&gt;Kafka Message Bus&lt;/font&gt;" style="rounded=0;whiteSpace=wrap;html=1;" parent="WIpk6FryHPEbsidNHlYV-15" vertex="1">
          <mxGeometry x="645.9431147540984" y="365.39453529591964" width="776.72131147541" height="91.90506061357569" as="geometry" />
        </mxCell>
        <mxCell id="53nCyL3O7BwKtmrme-u4-7" value="" style="group;fontSize=18;" parent="WIpk6FryHPEbsidNHlYV-15" vertex="1" connectable="0">
          <mxGeometry x="634.6316393442623" y="733.0147777502224" width="180.98360655737707" height="91.90506061357569" as="geometry" />
        </mxCell>
        <mxCell id="53nCyL3O7BwKtmrme-u4-1" value="&lt;font style=&quot;font-size: 18px;&quot;&gt;Collector&lt;/font&gt;" style="rounded=0;whiteSpace=wrap;html=1;" parent="53nCyL3O7BwKtmrme-u4-7" vertex="1">
          <mxGeometry width="180.98360655737707" height="91.90506061357569" as="geometry" />
        </mxCell>
        <mxCell id="53nCyL3O7BwKtmrme-u4-2" style="shape=image;editableCssRules=.*;image=data:image/svg+xml,PHN2ZyB2aWV3Qm94PSIwIDAgMjQgMjQiIHhtbG5zPSJodHRwOi8vd3d3LnczLm9yZy8yMDAwL3N2ZyI+PHN0eWxlPip7ZmlsbDojMjQ5NkVEfTwvc3R5bGU+PHBhdGggZD0iTTEzLjk4MyAxMS4wNzhoMi4xMTlhLjE4Ni4xODYgMCAwMC4xODYtLjE4NVY5LjAwNmEuMTg2LjE4NiAwIDAwLS4xODYtLjE4NmgtMi4xMTlhLjE4NS4xODUgMCAwMC0uMTg1LjE4NXYxLjg4OGMwIC4xMDIuMDgzLjE4NS4xODUuMTg1bS0yLjk1NC01LjQzaDIuMTE4YS4xODYuMTg2IDAgMDAuMTg2LS4xODZWMy41NzRhLjE4Ni4xODYgMCAwMC0uMTg2LS4xODVoLTIuMTE4YS4xODUuMTg1IDAgMDAtLjE4NS4xODV2MS44ODhjMCAuMTAyLjA4Mi4xODUuMTg1LjE4NW0wIDIuNzE2aDIuMTE4YS4xODcuMTg3IDAgMDAuMTg2LS4xODZWNi4yOWEuMTg2LjE4NiAwIDAwLS4xODYtLjE4NWgtMi4xMThhLjE4NS4xODUgMCAwMC0uMTg1LjE4NXYxLjg4N2MwIC4xMDIuMDgyLjE4NS4xODUuMTg2bS0yLjkzIDBoMi4xMmEuMTg2LjE4NiAwIDAwLjE4NC0uMTg2VjYuMjlhLjE4NS4xODUgMCAwMC0uMTg1LS4xODVIOC4xYS4xODUuMTg1IDAgMDAtLjE4NS4xODV2MS44ODdjMCAuMTAyLjA4My4xODUuMTg1LjE4Nm0tMi45NjQgMGgyLjExOWEuMTg2LjE4NiAwIDAwLjE4NS0uMTg2VjYuMjlhLjE4NS4xODUgMCAwMC0uMTg1LS4xODVINS4xMzZhLjE4Ni4xODYgMCAwMC0uMTg2LjE4NXYxLjg4N2MwIC4xMDIuMDg0LjE4NS4xODYuMTg2bTUuODkzIDIuNzE1aDIuMTE4YS4xODYuMTg2IDAgMDAuMTg2LS4xODVWOS4wMDZhLjE4Ni4xODYgMCAwMC0uMTg2LS4xODZoLTIuMTE4YS4xODUuMTg1IDAgMDAtLjE4NS4xODV2MS44ODhjMCAuMTAyLjA4Mi4xODUuMTg1LjE4NW0tMi45MyAwaDIuMTJhLjE4NS4xODUgMCAwMC4xODQtLjE4NVY5LjAwNmEuMTg1LjE4NSAwIDAwLS4xODQtLjE4NmgtMi4xMmEuMTg1LjE4NSAwIDAwLS4xODQuMTg1djEuODg4YzAgLjEwMi4wODMuMTg1LjE4NS4xODVtLTIuOTY0IDBoMi4xMTlhLjE4NS4xODUgMCAwMC4xODUtLjE4NVY5LjAwNmEuMTg1LjE4NSAwIDAwLS4xODQtLjE4NmgtMi4xMmEuMTg2LjE4NiAwIDAwLS4xODYuMTg2djEuODg3YzAgLjEwMi4wODQuMTg1LjE4Ni4xODVtLTIuOTIgMGgyLjEyYS4xODUuMTg1IDAgMDAuMTg0LS4xODVWOS4wMDZhLjE4NS4xODUgMCAwMC0uMTg0LS4xODZoLTIuMTJhLjE4NS4xODUgMCAwMC0uMTg0LjE4NXYxLjg4OGMwIC4xMDIuMDgyLjE4NS4xODUuMTg1TTIzLjc2MyA5Ljg5Yy0uMDY1LS4wNTEtLjY3Mi0uNTEtMS45NTQtLjUxLS4zMzguMDAxLS42NzYuMDMtMS4wMS4wODctLjI0OC0xLjctMS42NTMtMi41My0xLjcxNi0yLjU2NmwtLjM0NC0uMTk5LS4yMjYuMzI3Yy0uMjg0LjQzOC0uNDkuOTIyLS42MTIgMS40My0uMjMuOTctLjA5IDEuODgyLjQwMyAyLjY2MS0uNTk1LjMzMi0xLjU1LjQxMy0xLjc0NC40MkguNzUxYS43NTEuNzUxIDAgMDAtLjc1Ljc0OCAxMS4zNzYgMTEuMzc2IDAgMDAuNjkyIDQuMDYyYy41NDUgMS40MjggMS4zNTUgMi40OCAyLjQxIDMuMTI0IDEuMTguNzIzIDMuMSAxLjEzNyA1LjI3NSAxLjEzNy45ODMuMDAzIDEuOTYzLS4wODYgMi45My0uMjY2YTEyLjI0OCAxMi4yNDggMCAwMDMuODIzLTEuMzg5Yy45OC0uNTY3IDEuODYtMS4yODggMi42MS0yLjEzNiAxLjI1Mi0xLjQxOCAxLjk5OC0yLjk5NyAyLjU1My00LjRoLjIyMWMxLjM3MiAwIDIuMjE1LS41NDkgMi42OC0xLjAwOS4zMDktLjI5My41NS0uNjUuNzA3LTEuMDQ2bC4wOTgtLjI4OFoiLz48L3N2Zz4=;" parent="53nCyL3O7BwKtmrme-u4-7" vertex="1">
          <mxGeometry x="6.032786885245902" y="3.063502020452523" width="30.16393442622951" height="30.635020204525226" as="geometry" />
        </mxCell>
        <mxCell id="53nCyL3O7BwKtmrme-u4-8" value="" style="group;fontSize=18;" parent="WIpk6FryHPEbsidNHlYV-15" vertex="1" connectable="0">
          <mxGeometry x="1230.3693442622955" y="733.0147777502224" width="180.9836065573771" height="91.90506061357569" as="geometry" />
        </mxCell>
        <mxCell id="53nCyL3O7BwKtmrme-u4-3" value="&lt;font style=&quot;font-size: 18px;&quot;&gt;API&lt;/font&gt;" style="rounded=0;whiteSpace=wrap;html=1;" parent="53nCyL3O7BwKtmrme-u4-8" vertex="1">
          <mxGeometry width="180.98360655737702" height="91.90506061357569" as="geometry" />
        </mxCell>
        <mxCell id="53nCyL3O7BwKtmrme-u4-4" style="shape=image;editableCssRules=.*;image=data:image/svg+xml,PHN2ZyB2aWV3Qm94PSIwIDAgMjQgMjQiIHhtbG5zPSJodHRwOi8vd3d3LnczLm9yZy8yMDAwL3N2ZyI+PHN0eWxlPip7ZmlsbDojMjQ5NkVEfTwvc3R5bGU+PHBhdGggZD0iTTEzLjk4MyAxMS4wNzhoMi4xMTlhLjE4Ni4xODYgMCAwMC4xODYtLjE4NVY5LjAwNmEuMTg2LjE4NiAwIDAwLS4xODYtLjE4NmgtMi4xMTlhLjE4NS4xODUgMCAwMC0uMTg1LjE4NXYxLjg4OGMwIC4xMDIuMDgzLjE4NS4xODUuMTg1bS0yLjk1NC01LjQzaDIuMTE4YS4xODYuMTg2IDAgMDAuMTg2LS4xODZWMy41NzRhLjE4Ni4xODYgMCAwMC0uMTg2LS4xODVoLTIuMTE4YS4xODUuMTg1IDAgMDAtLjE4NS4xODV2MS44ODhjMCAuMTAyLjA4Mi4xODUuMTg1LjE4NW0wIDIuNzE2aDIuMTE4YS4xODcuMTg3IDAgMDAuMTg2LS4xODZWNi4yOWEuMTg2LjE4NiAwIDAwLS4xODYtLjE4NWgtMi4xMThhLjE4NS4xODUgMCAwMC0uMTg1LjE4NXYxLjg4N2MwIC4xMDIuMDgyLjE4NS4xODUuMTg2bS0yLjkzIDBoMi4xMmEuMTg2LjE4NiAwIDAwLjE4NC0uMTg2VjYuMjlhLjE4NS4xODUgMCAwMC0uMTg1LS4xODVIOC4xYS4xODUuMTg1IDAgMDAtLjE4NS4xODV2MS44ODdjMCAuMTAyLjA4My4xODUuMTg1LjE4Nm0tMi45NjQgMGgyLjExOWEuMTg2LjE4NiAwIDAwLjE4NS0uMTg2VjYuMjlhLjE4NS4xODUgMCAwMC0uMTg1LS4xODVINS4xMzZhLjE4Ni4xODYgMCAwMC0uMTg2LjE4NXYxLjg4N2MwIC4xMDIuMDg0LjE4NS4xODYuMTg2bTUuODkzIDIuNzE1aDIuMTE4YS4xODYuMTg2IDAgMDAuMTg2LS4xODVWOS4wMDZhLjE4Ni4xODYgMCAwMC0uMTg2LS4xODZoLTIuMTE4YS4xODUuMTg1IDAgMDAtLjE4NS4xODV2MS44ODhjMCAuMTAyLjA4Mi4xODUuMTg1LjE4NW0tMi45MyAwaDIuMTJhLjE4NS4xODUgMCAwMC4xODQtLjE4NVY5LjAwNmEuMTg1LjE4NSAwIDAwLS4xODQtLjE4NmgtMi4xMmEuMTg1LjE4NSAwIDAwLS4xODQuMTg1djEuODg4YzAgLjEwMi4wODMuMTg1LjE4NS4xODVtLTIuOTY0IDBoMi4xMTlhLjE4NS4xODUgMCAwMC4xODUtLjE4NVY5LjAwNmEuMTg1LjE4NSAwIDAwLS4xODQtLjE4NmgtMi4xMmEuMTg2LjE4NiAwIDAwLS4xODYuMTg2djEuODg3YzAgLjEwMi4wODQuMTg1LjE4Ni4xODVtLTIuOTIgMGgyLjEyYS4xODUuMTg1IDAgMDAuMTg0LS4xODVWOS4wMDZhLjE4NS4xODUgMCAwMC0uMTg0LS4xODZoLTIuMTJhLjE4NS4xODUgMCAwMC0uMTg0LjE4NXYxLjg4OGMwIC4xMDIuMDgyLjE4NS4xODUuMTg1TTIzLjc2MyA5Ljg5Yy0uMDY1LS4wNTEtLjY3Mi0uNTEtMS45NTQtLjUxLS4zMzguMDAxLS42NzYuMDMtMS4wMS4wODctLjI0OC0xLjctMS42NTMtMi41My0xLjcxNi0yLjU2NmwtLjM0NC0uMTk5LS4yMjYuMzI3Yy0uMjg0LjQzOC0uNDkuOTIyLS42MTIgMS40My0uMjMuOTctLjA5IDEuODgyLjQwMyAyLjY2MS0uNTk1LjMzMi0xLjU1LjQxMy0xLjc0NC40MkguNzUxYS43NTEuNzUxIDAgMDAtLjc1Ljc0OCAxMS4zNzYgMTEuMzc2IDAgMDAuNjkyIDQuMDYyYy41NDUgMS40MjggMS4zNTUgMi40OCAyLjQxIDMuMTI0IDEuMTguNzIzIDMuMSAxLjEzNyA1LjI3NSAxLjEzNy45ODMuMDAzIDEuOTYzLS4wODYgMi45My0uMjY2YTEyLjI0OCAxMi4yNDggMCAwMDMuODIzLTEuMzg5Yy45OC0uNTY3IDEuODYtMS4yODggMi42MS0yLjEzNiAxLjI1Mi0xLjQxOCAxLjk5OC0yLjk5NyAyLjU1My00LjRoLjIyMWMxLjM3MiAwIDIuMjE1LS41NDkgMi42OC0xLjAwOS4zMDktLjI5My41NS0uNjUuNzA3LTEuMDQ2bC4wOTgtLjI4OFoiLz48L3N2Zz4=;" parent="53nCyL3O7BwKtmrme-u4-8" vertex="1">
          <mxGeometry x="6.0327868852459" y="3.063502020452523" width="30.163934426229506" height="30.635020204525226" as="geometry" />
        </mxCell>
        <mxCell id="53nCyL3O7BwKtmrme-u4-72" value="" style="verticalLabelPosition=bottom;html=1;verticalAlign=top;align=center;strokeColor=none;fillColor=#00BEF2;shape=mxgraph.azure.website_generic;pointerEvents=1;" parent="53nCyL3O7BwKtmrme-u4-8" vertex="1">
          <mxGeometry x="145.49573770491807" y="3.063502020452523" width="35.487868852459016" height="30.635020204525226" as="geometry" />
        </mxCell>
        <mxCell id="53nCyL3O7BwKtmrme-u4-73" value="" style="sketch=0;outlineConnect=0;fontColor=#232F3E;gradientColor=none;fillColor=#8C4FFF;strokeColor=none;dashed=0;verticalLabelPosition=bottom;verticalAlign=top;align=center;html=1;fontSize=12;fontStyle=0;aspect=fixed;pointerEvents=1;shape=mxgraph.aws4.endpoint;" parent="53nCyL3O7BwKtmrme-u4-8" vertex="1">
          <mxGeometry x="149.67344262295083" y="61.27004040905045" width="25.340456273073816" height="25.340456273073816" as="geometry" />
        </mxCell>
        <mxCell id="53nCyL3O7BwKtmrme-u4-149" value="" style="curved=1;endArrow=classic;html=1;rounded=0;exitX=-0.093;exitY=0.403;exitDx=0;exitDy=0;exitPerimeter=0;" parent="53nCyL3O7BwKtmrme-u4-8" source="53nCyL3O7BwKtmrme-u4-72" edge="1">
          <mxGeometry width="50" height="50" relative="1" as="geometry">
            <mxPoint x="182.53704918032778" y="462.58880508833096" as="sourcePoint" />
            <mxPoint x="149.67465775775008" y="76.58755051131307" as="targetPoint" />
            <Array as="points">
              <mxPoint x="122.16393442622949" y="15.317510102262613" />
              <mxPoint x="122.16393442622949" y="76.58755051131307" />
            </Array>
          </mxGeometry>
        </mxCell>
        <mxCell id="53nCyL3O7BwKtmrme-u4-153" value="&lt;font style=&quot;font-size: 12px;&quot;&gt;&lt;b&gt;8&lt;/b&gt;&lt;/font&gt;" style="ellipse;whiteSpace=wrap;html=1;aspect=fixed;fillColor=#FFFFFF;strokeColor=#FF8000;fontColor=#000000;" parent="53nCyL3O7BwKtmrme-u4-8" vertex="1">
          <mxGeometry x="126.68852459016394" y="30.635020204525226" width="28.156062525637573" height="28.156062525637573" as="geometry" />
        </mxCell>
        <mxCell id="53nCyL3O7BwKtmrme-u4-9" value="" style="group;fontSize=18;" parent="WIpk6FryHPEbsidNHlYV-15" vertex="1" connectable="0">
          <mxGeometry x="943.8119672131147" y="733.0147777502224" width="180.98360655737707" height="91.90506061357569" as="geometry" />
        </mxCell>
        <mxCell id="53nCyL3O7BwKtmrme-u4-5" value="&lt;font style=&quot;font-size: 18px;&quot;&gt;Processor&lt;/font&gt;" style="rounded=0;whiteSpace=wrap;html=1;" parent="53nCyL3O7BwKtmrme-u4-9" vertex="1">
          <mxGeometry width="180.98360655737707" height="91.90506061357569" as="geometry" />
        </mxCell>
        <mxCell id="53nCyL3O7BwKtmrme-u4-6" style="shape=image;editableCssRules=.*;image=data:image/svg+xml,PHN2ZyB2aWV3Qm94PSIwIDAgMjQgMjQiIHhtbG5zPSJodHRwOi8vd3d3LnczLm9yZy8yMDAwL3N2ZyI+PHN0eWxlPip7ZmlsbDojMjQ5NkVEfTwvc3R5bGU+PHBhdGggZD0iTTEzLjk4MyAxMS4wNzhoMi4xMTlhLjE4Ni4xODYgMCAwMC4xODYtLjE4NVY5LjAwNmEuMTg2LjE4NiAwIDAwLS4xODYtLjE4NmgtMi4xMTlhLjE4NS4xODUgMCAwMC0uMTg1LjE4NXYxLjg4OGMwIC4xMDIuMDgzLjE4NS4xODUuMTg1bS0yLjk1NC01LjQzaDIuMTE4YS4xODYuMTg2IDAgMDAuMTg2LS4xODZWMy41NzRhLjE4Ni4xODYgMCAwMC0uMTg2LS4xODVoLTIuMTE4YS4xODUuMTg1IDAgMDAtLjE4NS4xODV2MS44ODhjMCAuMTAyLjA4Mi4xODUuMTg1LjE4NW0wIDIuNzE2aDIuMTE4YS4xODcuMTg3IDAgMDAuMTg2LS4xODZWNi4yOWEuMTg2LjE4NiAwIDAwLS4xODYtLjE4NWgtMi4xMThhLjE4NS4xODUgMCAwMC0uMTg1LjE4NXYxLjg4N2MwIC4xMDIuMDgyLjE4NS4xODUuMTg2bS0yLjkzIDBoMi4xMmEuMTg2LjE4NiAwIDAwLjE4NC0uMTg2VjYuMjlhLjE4NS4xODUgMCAwMC0uMTg1LS4xODVIOC4xYS4xODUuMTg1IDAgMDAtLjE4NS4xODV2MS44ODdjMCAuMTAyLjA4My4xODUuMTg1LjE4Nm0tMi45NjQgMGgyLjExOWEuMTg2LjE4NiAwIDAwLjE4NS0uMTg2VjYuMjlhLjE4NS4xODUgMCAwMC0uMTg1LS4xODVINS4xMzZhLjE4Ni4xODYgMCAwMC0uMTg2LjE4NXYxLjg4N2MwIC4xMDIuMDg0LjE4NS4xODYuMTg2bTUuODkzIDIuNzE1aDIuMTE4YS4xODYuMTg2IDAgMDAuMTg2LS4xODVWOS4wMDZhLjE4Ni4xODYgMCAwMC0uMTg2LS4xODZoLTIuMTE4YS4xODUuMTg1IDAgMDAtLjE4NS4xODV2MS44ODhjMCAuMTAyLjA4Mi4xODUuMTg1LjE4NW0tMi45MyAwaDIuMTJhLjE4NS4xODUgMCAwMC4xODQtLjE4NVY5LjAwNmEuMTg1LjE4NSAwIDAwLS4xODQtLjE4NmgtMi4xMmEuMTg1LjE4NSAwIDAwLS4xODQuMTg1djEuODg4YzAgLjEwMi4wODMuMTg1LjE4NS4xODVtLTIuOTY0IDBoMi4xMTlhLjE4NS4xODUgMCAwMC4xODUtLjE4NVY5LjAwNmEuMTg1LjE4NSAwIDAwLS4xODQtLjE4NmgtMi4xMmEuMTg2LjE4NiAwIDAwLS4xODYuMTg2djEuODg3YzAgLjEwMi4wODQuMTg1LjE4Ni4xODVtLTIuOTIgMGgyLjEyYS4xODUuMTg1IDAgMDAuMTg0LS4xODVWOS4wMDZhLjE4NS4xODUgMCAwMC0uMTg0LS4xODZoLTIuMTJhLjE4NS4xODUgMCAwMC0uMTg0LjE4NXYxLjg4OGMwIC4xMDIuMDgyLjE4NS4xODUuMTg1TTIzLjc2MyA5Ljg5Yy0uMDY1LS4wNTEtLjY3Mi0uNTEtMS45NTQtLjUxLS4zMzguMDAxLS42NzYuMDMtMS4wMS4wODctLjI0OC0xLjctMS42NTMtMi41My0xLjcxNi0yLjU2NmwtLjM0NC0uMTk5LS4yMjYuMzI3Yy0uMjg0LjQzOC0uNDkuOTIyLS42MTIgMS40My0uMjMuOTctLjA5IDEuODgyLjQwMyAyLjY2MS0uNTk1LjMzMi0xLjU1LjQxMy0xLjc0NC40MkguNzUxYS43NTEuNzUxIDAgMDAtLjc1Ljc0OCAxMS4zNzYgMTEuMzc2IDAgMDAuNjkyIDQuMDYyYy41NDUgMS40MjggMS4zNTUgMi40OCAyLjQxIDMuMTI0IDEuMTguNzIzIDMuMSAxLjEzNyA1LjI3NSAxLjEzNy45ODMuMDAzIDEuOTYzLS4wODYgMi45My0uMjY2YTEyLjI0OCAxMi4yNDggMCAwMDMuODIzLTEuMzg5Yy45OC0uNTY3IDEuODYtMS4yODggMi42MS0yLjEzNiAxLjI1Mi0xLjQxOCAxLjk5OC0yLjk5NyAyLjU1My00LjRoLjIyMWMxLjM3MiAwIDIuMjE1LS41NDkgMi42OC0xLjAwOS4zMDktLjI5My41NS0uNjUuNzA3LTEuMDQ2bC4wOTgtLjI4OFoiLz48L3N2Zz4=;" parent="53nCyL3O7BwKtmrme-u4-9" vertex="1">
          <mxGeometry x="6.032786885245902" y="3.063502020452523" width="30.16393442622951" height="30.635020204525226" as="geometry" />
        </mxCell>
        <mxCell id="53nCyL3O7BwKtmrme-u4-16" value="" style="endArrow=classic;html=1;rounded=0;exitX=0.474;exitY=0.02;exitDx=0;exitDy=0;exitPerimeter=0;entryX=0.097;entryY=0.964;entryDx=0;entryDy=0;entryPerimeter=0;" parent="WIpk6FryHPEbsidNHlYV-15" source="53nCyL3O7BwKtmrme-u4-1" target="53nCyL3O7BwKtmrme-u4-19" edge="1">
          <mxGeometry relative="1" as="geometry">
            <mxPoint x="664.795573770492" y="595.1571868298589" as="sourcePoint" />
            <mxPoint x="815.6152459016394" y="595.1571868298589" as="targetPoint" />
          </mxGeometry>
        </mxCell>
        <mxCell id="53nCyL3O7BwKtmrme-u4-17" value="" style="shape=message;html=1;outlineConnect=0;" parent="53nCyL3O7BwKtmrme-u4-16" vertex="1">
          <mxGeometry width="20" height="14" relative="1" as="geometry">
            <mxPoint x="-10" y="-7" as="offset" />
          </mxGeometry>
        </mxCell>
        <mxCell id="53nCyL3O7BwKtmrme-u4-89" value="&lt;font style=&quot;font-size: 18px;&quot;&gt;topic: raw-weather-reports&lt;/font&gt;" style="edgeLabel;html=1;align=center;verticalAlign=middle;resizable=0;points=[];rotation=-90;" parent="53nCyL3O7BwKtmrme-u4-16" vertex="1" connectable="0">
          <mxGeometry x="-0.3724" y="-1" relative="1" as="geometry">
            <mxPoint x="-24" y="-29" as="offset" />
          </mxGeometry>
        </mxCell>
        <mxCell id="53nCyL3O7BwKtmrme-u4-10" style="shape=image;editableCssRules=.*;image=data:image/svg+xml,PHN2ZyB2aWV3Qm94PSIwIDAgMjQgMjQiIHhtbG5zPSJodHRwOi8vd3d3LnczLm9yZy8yMDAwL3N2ZyI+PHN0eWxlPip7ZmlsbDojMjMxRjIwfTwvc3R5bGU+PHBhdGggZD0iTTkuNzEgMi4xMzZhMS40MyAxLjQzIDAgMCAwLTIuMDQ3IDBoLS4wMDdhMS40OCAxLjQ4IDAgMCAwLS40MjEgMS4wNDJjMCAuNDEuMTYxLjc3Ny40MjIgMS4wMzlsLjAwNy4wMDdjLjI1Ny4yNjQuNjE2LjQyNiAxLjAxOS40MjYuNDA0IDAgLjc2Ni0uMTYyIDEuMDI3LS40MjZsLjAwMy0uMDA3Yy4yNjEtLjI2Mi40MjEtLjYyOS40MjEtMS4wMzkgMC0uNDA4LS4xNTktLjc3Ny0uNDIxLTEuMDQySDkuNzF6TTguNjgzIDIyLjI5NWMuNDA0IDAgLjc2Ni0uMTY3IDEuMDI3LS40MjlsLjAwMy0uMDA4Yy4yNjEtLjI2MS40MjEtLjYzMS40MjEtMS4wMzYgMC0uNDEtLjE1OS0uNzc4LS40MjEtMS4wNDRIOS43MWExLjQyIDEuNDIgMCAwIDAtMS4wMjctLjQzMiAxLjQgMS40IDAgMCAwLTEuMDIuNDMyaC0uMDA3Yy0uMjYuMjY2LS40MjIuNjM0LS40MjIgMS4wNDQgMCAuNDA2LjE2MS43NzUuNDIyIDEuMDM2bC4wMDcuMDA4Yy4yNTguMjYyLjYxNy40MjkgMS4wMi40Mjl6bTcuODktNC40NjJjLjM1OS0uMDk2LjY4My0uMzMuODgyLS42ODRsLjAyNy0uMDUyYTEuNDcgMS40NyAwIDAgMCAuMTE0LTEuMDY3IDEuNDU0IDEuNDU0IDAgMCAwLS42NzUtLjg5NmwtLjAyMS0uMDE0YTEuNDI1IDEuNDI1IDAgMCAwLTEuMDc4LS4xMzJjLS4zNi4wOTEtLjY4NC4zMzUtLjg4MS42ODYtLjIuMzQ5LS4yNDEuNzUtLjE0NiAxLjExOS4wOTkuMzYzLjMzLjY5MS42NzUuODk2aC4wMDJjLjM0Ni4yMDMuNzM3LjIzOSAxLjEwMS4xNDR6bS02LjQwNS03LjM0MmEyLjA4MyAyLjA4MyAwIDAgMC0xLjQ4NS0uNjI3Yy0uNTggMC0xLjEwMy4yNDItMS40ODIuNjI3LS4zNzguMzg1LS42MTIuOTE2LS42MTIgMS41MDdzLjIzMyAxLjEyNC42MTIgMS41MTRhMi4wOCAyLjA4IDAgMCAwIDIuOTY3IDBjLjM3OS0uMzkuNjEyLS45MjMuNjEyLTEuNTE0cy0uMjMzLTEuMTIyLS42MTItMS41MDd6bS0uODM1LTIuNTFjLjg0My4xNDEgMS42LjU1MiAyLjE3OCAxLjE0NGguMDA0Yy4wOTIuMDkzLjE4Mi4xOTYuMjY1LjI5OWwxLjQ0Ni0uODUxYTMuMTc2IDMuMTc2IDAgMCAxLS4wNDctMS44MDggMy4xNDkgMy4xNDkgMCAwIDEgMS40NTYtMS45MjZsLjAyNS0uMDE2YTMuMDYyIDMuMDYyIDAgMCAxIDIuMzQ1LS4zMDZjLjc3LjIxIDEuNDY1LjcyMSAxLjg5OCAxLjQ4MnYuMDAyYy40MzEuNzU3LjUxOCAxLjYyNi4zMTMgMi40MDhhMy4xNDUgMy4xNDUgMCAwIDEtMS40NTYgMS45MjhsLS4xOTguMTE4aC0uMDJhMy4wOTUgMy4wOTUgMCAwIDEtMi4xNTQuMjAxIDMuMTI3IDMuMTI3IDAgMCAxLTEuNTE0LS45NDRsLTEuNDQ0Ljg0OGE0LjE2MiA0LjE2MiAwIDAgMSAwIDIuODc5bDEuNDQ0Ljg0NmMuNDEzLS40Ny45MzktLjc4OSAxLjUxNC0uOTQ0YTMuMDQxIDMuMDQxIDAgMCAxIDIuMzcxLjMxOWwuMDQ4LjAyM3YuMDAyYTMuMTcgMy4xNyAwIDAgMSAxLjQwOCAxLjkwNiAzLjIxNSAzLjIxNSAwIDAgMS0uMzEzIDIuNDA1bC0uMDI2LjA1My0uMDAzLS4wMDVhMy4xNDcgMy4xNDcgMCAwIDEtMS44NjcgMS40MzYgMy4wOTYgMy4wOTYgMCAwIDEtMi4zNzEtLjMxOHYtLjAwNmEzLjE1NiAzLjE1NiAwIDAgMS0xLjQ1Ni0xLjkyNyAzLjE3NSAzLjE3NSAwIDAgMSAuMDQ3LTEuODA1bC0xLjQ0Ni0uODQ4YTMuOTA1IDMuOTA1IDAgMCAxLS4yNjUuMjk0bC0uMDA0LjAwNWEzLjkzOCAzLjkzOCAwIDAgMS0yLjE3OCAxLjEzOHYxLjY5OWEzLjA5IDMuMDkgMCAwIDEgMS41Ni44NjJsLjAwMi4wMDRjLjU2NS41NzIuOTE0IDEuMzY4LjkxNCAyLjI0MyAwIC44NzMtLjM1IDEuNjY0LS45MTQgMi4yMzlsLS4wMDIuMDA5YTMuMSAzLjEgMCAwIDEtMi4yMS45MzEgMy4xIDMuMSAwIDAgMS0yLjIwNi0uOTNoLS4wMDJ2LS4wMDlhMy4xODYgMy4xODYgMCAwIDEtLjkxNi0yLjIzOWMwLS44NzUuMzUtMS42NzIuOTE2LTIuMjQzdi0uMDA0aC4wMDJhMy4xIDMuMSAwIDAgMSAxLjU1OC0uODYydi0xLjY5OWEzLjkyNiAzLjkyNiAwIDAgMS0yLjE3Ni0xLjEzOGwtLjAwNi0uMDA1YTQuMDk4IDQuMDk4IDAgMCAxLTEuMTczLTIuODc0YzAtMS4xMjIuNDUyLTIuMTM2IDEuMTczLTIuODcyaC4wMDZhMy45NDcgMy45NDcgMCAwIDEgMi4xNzYtMS4xNDRWNi4yODlhMy4xMzcgMy4xMzcgMCAwIDEtMS41NTgtLjg2NGgtLjAwMnYtLjAwNGEzLjE5MiAzLjE5MiAwIDAgMS0uOTE2LTIuMjQzYzAtLjg3MS4zNS0xLjY2OS45MTYtMi4yNDNsLjAwMi0uMDAyQTMuMDg0IDMuMDg0IDAgMCAxIDguNjgzIDBjLjg2MSAwIDEuNjQxLjM1NSAyLjIxLjkzMnYuMDAyaC4wMDJjLjU2NS41NzQuOTE0IDEuMzcyLjkxNCAyLjI0MyAwIC44NzYtLjM1IDEuNjY3LS45MTQgMi4yNDNsLS4wMDIuMDA1YTMuMTQyIDMuMTQyIDAgMCAxLTEuNTYuODY0djEuNjkyem04LjEyMS0xLjEyOWwtLjAxMi0uMDE5YTEuNDUyIDEuNDUyIDAgMCAwLS44Ny0uNjY4IDEuNDMgMS40MyAwIDAgMC0xLjEwMy4xNDZoLjAwMmMtLjM0Ny4yLS41OC41MjktLjY3Ny44OTYtLjA5NS4zNjUtLjA1NC43NjguMTQ2IDEuMTE5bC4wMDcuMDA5Yy4yLjM0Ny41MTkuNTc5Ljg3NC42NzMuMzU3LjEwMy43NTUuMDU5IDEuMDk4LS4xNDRsLjAxOS0uMDA5YTEuNDcgMS40NyAwIDAgMCAuNjU3LS44ODUgMS40OTMgMS40OTMgMCAwIDAtLjE0MS0xLjExOCIvPjwvc3ZnPg==;direction=east;" parent="WIpk6FryHPEbsidNHlYV-15" vertex="1">
          <mxGeometry x="645.9431147540984" y="365.39453529591964" width="49.016393442622956" height="61.27004040905045" as="geometry" />
        </mxCell>
        <mxCell id="53nCyL3O7BwKtmrme-u4-24" value="" style="endArrow=classic;html=1;rounded=0;exitX=0.442;exitY=1.052;exitDx=0;exitDy=0;exitPerimeter=0;entryX=0.25;entryY=0;entryDx=0;entryDy=0;" parent="WIpk6FryHPEbsidNHlYV-15" source="53nCyL3O7BwKtmrme-u4-19" target="53nCyL3O7BwKtmrme-u4-5" edge="1">
          <mxGeometry relative="1" as="geometry">
            <mxPoint x="875.9431147540985" y="768.2450509854265" as="sourcePoint" />
            <mxPoint x="875.9431147540985" y="487.9346161140206" as="targetPoint" />
          </mxGeometry>
        </mxCell>
        <mxCell id="53nCyL3O7BwKtmrme-u4-25" value="" style="shape=message;html=1;outlineConnect=0;" parent="53nCyL3O7BwKtmrme-u4-24" vertex="1">
          <mxGeometry width="20" height="14" relative="1" as="geometry">
            <mxPoint x="-10" y="-7" as="offset" />
          </mxGeometry>
        </mxCell>
        <mxCell id="53nCyL3O7BwKtmrme-u4-92" value="topic: raw-weather-reports" style="edgeLabel;html=1;align=center;verticalAlign=middle;resizable=0;points=[];rotation=-90;fontSize=18;" parent="53nCyL3O7BwKtmrme-u4-24" vertex="1" connectable="0">
          <mxGeometry x="-0.275" y="2" relative="1" as="geometry">
            <mxPoint x="-24" y="61" as="offset" />
          </mxGeometry>
        </mxCell>
        <mxCell id="53nCyL3O7BwKtmrme-u4-26" value="" style="endArrow=classic;html=1;rounded=0;exitX=0.75;exitY=0;exitDx=0;exitDy=0;entryX=0.559;entryY=1.044;entryDx=0;entryDy=0;entryPerimeter=0;" parent="WIpk6FryHPEbsidNHlYV-15" source="53nCyL3O7BwKtmrme-u4-5" target="53nCyL3O7BwKtmrme-u4-19" edge="1">
          <mxGeometry relative="1" as="geometry">
            <mxPoint x="1072.0086885245903" y="717.6972676479598" as="sourcePoint" />
            <mxPoint x="1072.0086885245903" y="437.386832776554" as="targetPoint" />
          </mxGeometry>
        </mxCell>
        <mxCell id="53nCyL3O7BwKtmrme-u4-27" value="" style="shape=message;html=1;outlineConnect=0;" parent="53nCyL3O7BwKtmrme-u4-26" vertex="1">
          <mxGeometry width="20" height="14" relative="1" as="geometry">
            <mxPoint x="-10" y="-7" as="offset" />
          </mxGeometry>
        </mxCell>
        <mxCell id="53nCyL3O7BwKtmrme-u4-93" value="topic: transformed-weather-data" style="edgeLabel;html=1;align=center;verticalAlign=middle;resizable=0;points=[];rotation=-90;fontSize=18;" parent="53nCyL3O7BwKtmrme-u4-26" vertex="1" connectable="0">
          <mxGeometry x="-0.2729" y="1" relative="1" as="geometry">
            <mxPoint x="22" y="-32" as="offset" />
          </mxGeometry>
        </mxCell>
        <mxCell id="53nCyL3O7BwKtmrme-u4-28" value="" style="endArrow=classic;html=1;rounded=0;exitX=0.442;exitY=1.052;exitDx=0;exitDy=0;exitPerimeter=0;entryX=0.25;entryY=0;entryDx=0;entryDy=0;" parent="WIpk6FryHPEbsidNHlYV-15" edge="1">
          <mxGeometry relative="1" as="geometry">
            <mxPoint x="1313.3201639344263" y="461.8948489401741" as="sourcePoint" />
            <mxPoint x="1313.3201639344263" y="733.0147777502224" as="targetPoint" />
          </mxGeometry>
        </mxCell>
        <mxCell id="53nCyL3O7BwKtmrme-u4-29" value="" style="shape=message;html=1;outlineConnect=0;" parent="53nCyL3O7BwKtmrme-u4-28" vertex="1">
          <mxGeometry width="20" height="14" relative="1" as="geometry">
            <mxPoint x="-10" y="-7" as="offset" />
          </mxGeometry>
        </mxCell>
        <mxCell id="53nCyL3O7BwKtmrme-u4-94" value="topic: transformed-weather-data" style="edgeLabel;html=1;align=center;verticalAlign=middle;resizable=0;points=[];rotation=-90;fontSize=18;" parent="53nCyL3O7BwKtmrme-u4-28" vertex="1" connectable="0">
          <mxGeometry x="-0.3442" y="2" relative="1" as="geometry">
            <mxPoint x="24" y="44" as="offset" />
          </mxGeometry>
        </mxCell>
        <mxCell id="53nCyL3O7BwKtmrme-u4-33" value="" style="group;fontSize=18;" parent="WIpk6FryHPEbsidNHlYV-15" vertex="1" connectable="0">
          <mxGeometry x="948.7309836065574" y="978.0949393864242" width="180.98360655737707" height="91.90506061357569" as="geometry" />
        </mxCell>
        <mxCell id="53nCyL3O7BwKtmrme-u4-30" value="&lt;font style=&quot;font-size: 18px;&quot;&gt;Log / Trace Collector&lt;/font&gt;" style="rounded=0;whiteSpace=wrap;html=1;align=right;" parent="53nCyL3O7BwKtmrme-u4-33" vertex="1">
          <mxGeometry width="180.98360655737707" height="91.90506061357569" as="geometry" />
        </mxCell>
        <mxCell id="53nCyL3O7BwKtmrme-u4-31" style="shape=image;editableCssRules=.*;image=data:image/svg+xml,PHN2ZyB2aWV3Qm94PSIwIDAgMjQgMjQiIHhtbG5zPSJodHRwOi8vd3d3LnczLm9yZy8yMDAwL3N2ZyI+PHN0eWxlPip7ZmlsbDojNjZDRkUzfTwvc3R5bGU+PHBhdGggZD0iTTE0LjgxNiAyMi4zNzc0YzAgLjA3MjQtLjEyODMuMTMxMS0uMjg2NS4xMzExLS4xNTgxIDAtLjI4NjQtLjA1ODctLjI4NjQtLjEzMSAwLS4wNzI1LjEyODMtLjEzMTEuMjg2NC0uMTMxMS4xNTgyIDAgLjI4NjUuMDU4Ni4yODY1LjEzMVptLS43MzguMTU1NGMwIC4wNzUtLjEyNi4xMzYtLjI4MTUuMTM2LS4xNTU1IDAtLjI4MTYtLjA2MS0uMjgxNi0uMTM2IDAtLjA3NS4xMjYtLjEzNi4yODE2LS4xMzYuMTU1NSAwIC4yODE2LjA2MS4yODE2LjEzNlptLS43NDI3LjE0MDhjMCAuMDY5Ny0uMTczOS4xMjYyLS4zODg0LjEyNjItLjIxNDUgMC0uMzg4NC0uMDU2NS0uMzg4NC0uMTI2MiAwLS4wNjk3LjE3NC0uMTI2My4zODg0LS4xMjYzLjIxNDUgMCAuMzg4NC4wNTY2LjM4ODQuMTI2M1ptLTEuMTM2LjExMTZjMCAuMDg4NS0uMTU4Ny4xNjAyLS4zNTQ0LjE2MDItLjE5NTcgMC0uMzU0NC0uMDcxNy0uMzU0NC0uMTYwMiAwLS4wODg1LjE1ODctLjE2MDIuMzU0NC0uMTYwMi4xOTU3IDAgLjM1NDQuMDcxNy4zNTQ0LjE2MDJabS0xLjE5NDMuMDM4OWMwIC4wOTY1LS4yMzY5LjE3NDctLjUyOTEuMTc0Ny0uMjkyMyAwLS41MjkyLS4wNzgyLS41MjkyLS4xNzQ3IDAtLjA5NjYuMjM3LS4xNzQ4LjUyOTItLjE3NDhzLjUyOTEuMDc4Mi41MjkxLjE3NDhabTEuMTA3LS44Nzg3Yy42MTE2LS4wMjkyLjc3MTgtLjEyMTQuNzkxMi0uMzI1MyAwIDAgLjEyMTQtLjE1MDUtLjI5MTMtLjIzMy0uNDEyNi0uMDgyNi0uOTk1Mi0uMDgyNi0uODkzMi0uNDEyNy4xMDItLjMzNSAxLjE1NTQtLjM5MzIgMS43ODY1LS4zOTMyczEuMzQ0Ny0uMDM4OCAxLjI1MjUuMzAxYy0uMDg3NC4zMzk4LS41NDg2LjM0NDctLjUwOTcuNTcyOC4wMzg4LjIyODIuNDE3NS4xNjAyLjM0OTUuNTE5NS0uMDY4LjM1OTItMS43NDI4LjQ5MDMtMi45Mjc0LjU5MjMtMS4xNzk3LjEwMi0xLjkzMjEtLjAxOTUtMS43NDI4LS4zMzk5LjE4OTMtLjMyMDQgMS41NzMtLjI1MjQgMi4xODQ2LS4yODE1Wm0tOS45NjkzIDEuMDc1NWMuMDA2Ni4wNDUtLjEyOC4xMDItLjMwMDQuMTI3LS4xNzI0LjAyNTEtLjMxNzYuMDA4OS0uMzI0MS0uMDM2Mi0uMDA2Ni0uMDQ1Mi4xMjgtLjEwMi4zMDA0LS4xMjcxLjE3MjUtLjAyNS4zMTc2LS4wMDg4LjMyNDEuMDM2M1ptLjA5MTguMjI2Yy4wMDc3LjA1My0uMTQ3NC4xMTk1LS4zNDY0LjE0ODQtLjE5OS4wMjktLjM2NjUuMDA5NC0uMzc0Mi0uMDQzNy0uMDA3OC0uMDUzLjE0NzMtLjExOTUuMzQ2My0uMTQ4NS4xOTktLjAyODkuMzY2Ni0uMDA5My4zNzQzLjA0MzhabS4xNjQ4LjIwNGMuMDA3Ny4wNTMtLjE0NzMuMTE5NC0uMzQ2My4xNDg0LS4xOTkuMDI4OS0uMzY2Ni4wMDkzLS4zNzQzLS4wNDM3LS4wMDc3LS4wNTMxLjE0NzMtLjExOTYuMzQ2My0uMTQ4NS4xOTktLjAyOS4zNjY2LS4wMDk0LjM3NDMuMDQzN1ptLjczODcuMTE0Yy4wMDg2LjA2MzgtLjE1MDEuMTM4LS4zNTQ3LjE2Ni0uMjA0Ni4wMjc4LS4zNzc0LS4wMDEzLS4zODYxLS4wNjUtLjAwODctLjA2MzguMTUtLjEzOC4zNTQ2LS4xNjYuMjA0Ni0uMDI3OC4zNzc1LjAwMTMuMzg2Mi4wNjVabTEuMTgwMy4xMzA5Yy4wMDY2LjA4MjgtLjIzOTQuMTctLjU0OTQuMTk0N3MtLjU2NjctLjAyMjUtLjU3MzMtLjEwNTNjLS4wMDY2LS4wODI5LjIzOTQtLjE3LjU0OTQtLjE5NDdzLjU2NjcuMDIyNC41NzMzLjEwNTNabTEuMTkyNi4wMDExYy4wMTgyLjA4MzgtLjIwMDYuMjAyNi0uNDg4OC4yNjUzLS4yODgyLjA2MjctLjUzNjYuMDQ1Ni0uNTU0OC0uMDM4Mi0uMDE4Mi0uMDgzOS4yMDA2LS4yMDI3LjQ4ODgtLjI2NTQuMjg4Mi0uMDYyNy41MzY2LS4wNDU1LjU1NDguMDM4M1ptMS4yNDYzLTIuMDMzMWMuMzU0NC0uMDc3NyAxLjk4NTYtLjAzODggMi4wMjkyLjI0NzYuMDUzNC4yOTEzLTIuNjcuNTQzNy0zLjI4NjYuNjMxLS42MTY1LjA4NzUtLjY0MDguMjYyMi0uNjQwOC4yNjIyIDAgLjAxNDYtLjA1MzQuMTU1NC4zNDk1LjE1MDUuNTYzMi0uMDA5Ny45NTY0LjEwNjguNzIzNC4zNzg3LS4yMzMuMjcxOS0yLjgxMDkuMTk5LTMuMzQgMC0uNTI5Mi0uMTk5LS4zMjA0LS4zOTgtLjA0ODYtLjUuMjcxOS0uMDk3MSAxLjA0MzgtLjE4OTQgMS45MzctLjM1OTMuODkzMy0uMTY5OSAxLjkyNzQtLjcyODIgMi4yNzY5LS44MTA3Wm02Ljc5MTctOS43MzM3YS42NDU3LjY0NTcgMCAxIDEtMS4yOTE0IDAgLjY0NTcuNjQ1NyAwIDAgMSAxLjI5MTQgMFpNNy4zMTU1IDEzLjQ0YS42NDU3LjY0NTcgMCAxIDEtMS4yOTE0IDAgLjY0NTcuNjQ1NyAwIDAgMSAxLjI5MTQgMFpNNC4zMjUgMjAuMDIzYy0uMzU0NCAwLS42MDItLjE0MDktLjc1NzMtLjQxNzYtLjA2MzEtLjEwNjgtLjEwMi0uMjM3OS0uMTMxMS0uMzczOC0uMDYzMS0uMzM1LS4wNDM3LS43MjgyLjAyOTEtMS4wOTcyLjA4MjUtLjQxMjYuMjI4Mi0uNzk2MS4zODM1LTEuMDM4OS4xNDA4LS4yMjMzLjI3MTktLjM2OS4zODg0LS40NjZhNTAuNjEgNTAuNjEgMCAwIDAgLjUxOTUgMS4zMjA1Yy4yMzc4LjU4NzQuNDU2MyAxLjEwNjguNjE2NSAxLjQ3NTgtLjAwOTcuMDE5NC0uMDI0My4wMzQtLjAzODguMDUzNC0uMjMzLjMxMDctLjU1ODMuNTQzNy0xLjAwOTguNTQzN1ptMTUuMDE1NS0yLjE5NDRjMCAuMDE0Ni4wMDQ5LjAzODguMDE5NS4wNzI4LjA1MzQuMjkxMy4yMzMgMS4wNzc4LjM1NDMgMS41MjkyLTEuODY0Mi4yMDg4LTQuNTA1MS4zMzk5LTcuNDMyNS4zMzk5LTIuNDc1OSAwLTQuNzQ3OS0uMDkyMy02LjUxNS0uMjQ3NmE4Ni40NiA4Ni40NiAwIDAgMS0uNjc0OC0xLjYwN2MtLjU5Ny0xLjQ1NjMtMS4zMzAyLTMuMzkzMy0xLjU1ODMtNC41Nzc5LS4yMDg4LTEuMDkyMy0uNDYxMi0yLjQxNzYuMTE2NS0zLjYxMTlBMjguNTY4MiAyOC41NjgyIDAgMCAxIDMuMzIgOS42OTdjLTEuMzY5LS4xNDU2LTEuNTUzNS0uNDEyNy0xLjYyNjMtLjUyNDMtLjA3NzctLjExMTctLjA5MjMtLjI0MjctLjAzODktLjM3MzguMTIxNC0uMzA1OS41MzQtLjU4MjYgMS4wMTQ2LS44MTA4YTUuMDI4IDUuMDI4IDAgMCAwIC4xMzYuMjgxNmMtLjQzNy4yMDg4LS43NzY4LjQzMi0uODU5My42NDU3LS4wMTk0LjA0MzctLjAwOTcuMDYzMS4wMDQ5LjA4NzQuMDY4LjA5Ny40NjExLjM5OCAyLjY4NDYuNDcwOWEuNjMxNi42MzE2IDAgMCAxLS41LS41MDUuNjM0LjYzNCAwIDAgMSAuMDU4Mi0uMzkzMWMtLjIwMzkuMTA2OC0uNDA3OC4yMzMtLjYwMi4zNjQgMCAwLTEuNjU1NC0yLjE3NDgtLjQ3MDktMi44OTMzLjEzNi0uMDgyNi4yNjctLjEyMTQuMzk4MS0uMTIxNC45OTA0IDAgMS43MjM0IDIuMTYwMyAxLjcyMzQgMi4xNjAzcy0uMTQ1Ni4wNTM0LS4zNTkyLjE1MDVjLjI2MjEuMDI0My43ODE2LjE0NTcgMS44MzAyLjU2OCAxLjA2OC40MzIxIDEuNDk1Mi40NjEyIDEuNjExOC40NjEyQS42MjUuNjI1IDAgMCAxIDkgOS4zNDI2bC4wMzQuMDM0YTIyLjg4NSAyMi44ODUgMCAwIDAgLjQ1NjMtLjAzODljLjA0ODUtLjAwNDguMTExNi0uMDE5NC4xOTQyLS4wMzg4YS42Mjc3LjYyNzcgMCAwIDEgLjI4NjQtLjU4MjYuNjE5My42MTkzIDAgMCAxIC43MzMuMDQzNy40MzQuNDM0IDAgMCAwIC4wODc0LS4wMzRjLjI3MTktLjEzNTkgMS4yMzMxLTEuMTYwMiAxLjk1NjUtMi4wMzRhLjYxNi42MTYgMCAwIDEgLjYxMTctLjIxMzdjLjE5NDEtLjY1NTMuOTcwOS0yLjk3NTkgMi4xNTU0LTIuOTc1OSAxLjM3ODggMCAuNTc3NyAyLjcyODMuNDQxOCAyLjkyMjUgMCAwLS4zMjA0LS4wMjQyLS43NTczLS4wMjQyLS40ODU1IDAtMS4xMTY2LjAyOS0xLjYzMTIuMTY1LjAxNDYuMDA5Ny4wMzQuMDI0My4wNTM0LjAzODkuMjY3LjIxODQuMzAxLjYxMTcuMDgyNS44Nzg3LS4xMTY1LjEzNTktLjI2Ny4zMjA0LS40NDE3LjUxOTQuMzU5Mi0uMTQ1Ni43MzMtLjMwNTggMS4xMDY4LS40NjYuNjI2My0uMjc2OCAxLjIwODktLjUzOSAxLjcyMzQtLjc5MTRoLjAwOThsLjAwNDgtLjAwOTdjLjQ0MTgtLjIxMzYuODM5OS0uNDE3NSAxLjE3NDgtLjYwNjggMS4xNy0uNjU1NCAxLjMxNTctLjk0MTggMS4zMzAyLTEuMDE0Ni4wMDk3LS4wNDg2IDAtLjA2MzEtLjAwNDgtLjA2OC0uMDA5Ny0uMDE5NC0uMDkyMy0uMDk3LS40NjEyLS4wOTctLjQwMyAwLS45NjYxLjA5MjItMS41NTM1LjIxODRhMy44NDkgMy44NDkgMCAwIDAgLjAyOTEtLjMyNTNjLjU3MjktLjExNjUgMS4xMjE0LS4yMDM5IDEuNTI5Mi0uMjAzOS4zNjkgMCAuNTkyMy4wNjguNzA4OC4yMTM2LjA1MzQuMDYzMS4xMDY4LjE3NDguMDY4LjMzNS0uMDQzNy4xODkzLS4yNDI4LjUxOTQtMS40ODA3IDEuMjEzN2E4LjY2MjMgOC42NjIzIDAgMCAxLS4zNzM4LjIwMzljLS4wOTIyLjA1MzQtLjE5NDIuMTAyLS4yOTYxLjE1NTMuNTU4Mi40NzEuOTc1OCAxLjE3NDggMS4yMzc5IDIuMTk0My41MjkyIDIuMDM5LjkzNyA0LjQyNzUgMS4yMTg1IDYuMzIwOC0uNDYxMi4wNTgzLS43NDI3LjI3NjctLjgwMS42MzExLS4wNjMxLjM4MzYuMTM2LjU5MjMuMzQ0Ny44MTU2LjIyMzMuMjM3OS40ODA2LjUwNS41NjMxIDEuMTA2OVptLTQuODQtMTIuMzMxYzAgLjAyNDQuMDA0OC4wMTk1LjAwNDguMDE5NXMuMDI0Mi0uMDQzNy4wNjMtLjExNjVjLjA0MzgtLjA3MjguMTAyLS4xNzQ4LjE3LS4yOTYxLjA3MjgtLjEyMTQuMTU1My0uMjU3My4yNTczLS4zNzg3LjA0ODUtLjA1ODMuMTA2OC0uMTE2NS4xNjUtLjE2MDIuMDYzMi0uMDQzNy4xMjE0LS4wNzI4LjE4NDUtLjA4MjUuMDE5NCAwIC4wMzQtLjAwNDkuMDQ4Ni0uMDA0OS4wMTQ1LjAwNDkuMDM0IDAgLjA0ODUuMDA0OS4wMTQ2LjAwNDguMDM0LjAwNDguMDQ4Ni4wMDk3bC4wMzg4LjAwOTcuMDA5Ny4wMDQ4YzAgLjAwNDkuMDA0OS4wMDQ5LjAwNDkuMDA5Ny4wMDk3LjAxNDYuMDE0NS4wNDM3LjAxOTQuMDc3NyAwIC4wNjgtLjAwNDkuMTUwNS0uMDE5NC4yMjMzLS4wMDk3LjA3MjktLjAyOTIuMTQ1Ny0uMDQzNy4yMTM2LS4wMzQuMTM2LS4wNjMxLjI0NzYtLjA4MjYuMzMwMi0uMDI0Mi4wODI1LS4wMzQuMTMxLS4wMzQuMTMxcy4wMzQtLjAzNC4wODc0LS4xMDJjLjA1MzQtLjA2My4xMjE0LS4xNjUuMTk0Mi0uMjkxMi4wMzQtLjA2MzEuMDcyOS0uMTM2LjEwMi0uMjE4NS4wMjkxLS4wODI1LjA1ODItLjE3NDcuMDY4LS4yODE1LjAwNDgtLjA1MzQuMDA0OC0uMTE2NS0uMDE5NS0uMTg0NS0uMDA0OC0uMDE5NC0uMDE0NS0uMDM0LS4wMjQyLS4wNTM0bC0uMDE0Ni0uMDI0My0uMDE5NC0uMDI0M2MtLjAxOTQtLjAyOS0uMDk3MS0uMDc3Ni0uMTAyLS4wNzc2bC0uMDA5Ny0uMDA0OWgtLjAwNDhsLS4wMTQ2LS4wMDQ4aC0uMDA0OWwtLjAxOTQtLjAwOTctLjA0MzctLjAxNDZjLS4wMjQyLS4wMDk3LS4wNTgyLS4wMTQ2LS4wODc0LS4wMTk0LS4wMjktLjAwNDktLjA2My0uMDA0OS0uMDkyMi0uMDA0OS0uMDI5MS4wMDQ5LS4wNjMxLjAwNDktLjA5MjIuMDA5N2EuNjg0NC42ODQ0IDAgMCAwLS4zMjA0LjE1NTRjLS4wODc0LjA3MjgtLjE1MDUuMTU1My0uMjA0LjIzNzktLjEwMTkuMTY1LS4xNjAxLjMzLS4xOTkuNDcwOS0uMDM0LjE0NTYtLjA1MzQuMjY3LS4wNTgyLjM0OTUtLjAwNDkuMDM4OC0uMDA0OS4wNzI4LS4wMDQ5LjA5N1ptLTQuMjg2OCAzLjU3OGMtLjA4NzQuMDUzNC0uMTExNi4xNjUtLjA2My4yNTI0LjAxNDUuMDE5NS4wOTIyLjEzMTEuMjU3Mi4xOTQyYS43MDcuNzA3IDAgMCAwIC4yNTI1LjA0MzdjLjE0NTYgMCAuMzA1OC0uMDM4OC40NzA5LS4xMTE2LjM1OTItLjE2MDIgMS4yMzc5LTEuMDQ4NyAyLjI0MjgtMi4yNTc1LjA2MzEtLjA3NzYuMDUzNC0uMTk0Mi0uMDI0Mi0uMjU3My0uMDQzNy0uMDM0LS4wODc0LS4wNDM3LS4xMTY2LS4wNDM3YS4xNzk0LjE3OTQgMCAwIDAtLjE0MDcuMDY4Yy0uNDMyMS41MTk1LTEuNjU1NSAxLjkyMjUtMi4wOTI0IDIuMTQ1OGwtLjAxOTQuMDA5N2MtLjA1MzQuMDE5NC0uMTAyLjAzODgtLjE1MDUuMDUzNGwtLjIyMzMuMDYzMS0uMTc5Ny0uMTQ1NmMtLjAyOTEtLjAyOTItLjA3MjgtLjA0MzctLjExNjUtLjA0MzdhLjE3NS4xNzUgMCAwIDAtLjA5Ny4wMjlaTTkuMTcgMTQuMzA0Yy4wNTgyLjMzNS41ODc0LjUyNDMgMS4xODQ1LjQyNzIuNTk3MS0uMDk3IDEuMDM5LS40NTE1Ljk4MDctLjc4NjUtLjA1ODMtLjMzNS0uNTg3NS0uNTI0My0xLjE4NDYtLjQyNzItLjU5NzEuMTAyLTEuMDM0LjQ1NjQtLjk4MDYuNzg2NVpNNC40MTcyIDcuOTQ5M2EyLjAwMSAyLjAwMSAwIDAgMCAuMDcyOS4wOTIycy0uMDA0OS0uMDE0NS0uMDA0OS0uMDM0Yy0uMDA0OS0uMDE5NC0uMDA0OS0uMDQ4NS0uMDE0Ni0uMDg3My0uMDA5Ny0uMDc3Ny0uMDM4OC0uMTg0NS0uMDc3Ni0uMzEwN2EyLjQwODggMi40MDg4IDAgMCAwLS4xNzQ4LS40MTc1IDEuODg2OCAxLjg4NjggMCAwIDAtLjE0MDgtLjIyMzNjLS4wNTM0LS4wNzI5LS4xMTY1LS4xNDU3LS4yMDM5LS4yMTM2LS4wNDg1LS4wMjkyLS4wOTctLjA2MzItLjE2NS0uMDgyNi0uMDE0Ni0uMDA0OC0uMDM0LS4wMDQ4LS4wNTM1LS4wMDk3aC0uMDcyOGMtLjAwOTcgMC0uMDI5MS4wMDQ5LS4wMzQuMDA0OWwtLjAyOS4wMDk3LS4wMTk1LjAwNDgtLjAwNDkuMDA0OS0uMDA5Ny4wMDQ4YS4zMzcxLjMzNzEgMCAwIDAtLjE2MDIuMTM2LjQ0NzMuNDQ3MyAwIDAgMC0uMDUzNC4xNzQ3Yy0uMDA5Ny4xMDY4LjAxNDYuMTk0Mi4wMzQuMjcyLjAyNDMuMDc3Ni4wNTM0LjE1MDQuMDgyNS4yMDg3YTEuNDkzIDEuNDkzIDAgMCAwIC4xNy4yNzE4Yy4wMjQyLjAyOTEuMDQzNi4wNTM0LjA1ODIuMDY4bC4wMjQzLjAyNDNzLS4wMDk3LS4wNDM3LS4wMjQzLS4xMTY2Yy0uMDE0Ni0uMDcyOC0uMDM4OC0uMTc5Ni0uMDU4Mi0uMzAxYTIuMjkwNCAyLjI5MDQgMCAwIDEtLjAyNDMtLjE5NDFjLS4wMDQ5LS4wNjgtLjAwNDktLjEzNi4wMDk3LS4xODk0LjAwNDgtLjAyNDIuMDE0Ni0uMDQzNy4wMjQzLS4wNTM0LjAwOTctLjAwNDguMDE0NS0uMDA5Ny4wMjktLjAxNDVoLjAwOThsLjAxNDYtLjAwNDljLjAwNDggMCAwIC4wMDQ5IDAgLjAwNDloLjAwNDhhLjIwNDUuMjA0NSAwIDAgMSAuMDYzMS4wMzRjLjA0ODYuMDM4OC4xMDIuMDkyMi4xNTA1LjE1MDQuMDUzNC4wNjMyLjEwMi4xMjE0LjE0NTcuMTg0NS4wODczLjEyNjIuMTc0Ny4yNDc2LjI0NzYuMzQ5NmE1LjE5OSA1LjE5OSAwIDAgMCAuMTg0NC4yNTI0Wm0uMzU0NCAxLjA3NzcuMDM0LjAwNDljLjEzMS4wMTQ2LjU1MzQuMDkyMiAxLjU5MjMuNTA5Ny44NTQ1LjM0NDcgMS41MDAxLjUxOTUgMS45MTI4LjUxOTUuMzEwNyAwIC4zOTMyLS4wOTcxLjQyMjMtLjEzMS4wNDM3LS4wNTM1LjA0ODYtLjEwNjkuMDQzNy0uMTM2LS4wMDQ4LS4wMjkxLS4wMTQ1LS4wODI1LS4wNjgtLjEyNjItLjA0MzYtLjAzNC0uMDg3My0uMDQzNy0uMTE2NC0uMDQzNy0uMDI5MiAwLS4wNTgzLjAwNDgtLjA4MjYuMDE5NGwtLjA4NzQuMDQzN2gtLjExNjVjLS4yNDc2IDAtLjc2MjItLjA4MjUtMS43NjctLjQ5MDMtMS4yMDQtLjQ4NTUtMS42NDU4LS41MzktMS43NzY5LS41MzktLjAyOTEgMC0uMDM4OCAwLS4wNTgyLjAwNS0uMDYzMi4wMTQ1LS4xMDIuMDUzMy0uMTE2Ni4wNzc2LS4wMTQ1LjAxOTQtLjAzODguMDcyOC0uMDI5LjEzNi4wMTQ1LjA4NzMuMDkyMi4xNTA0LjE3OTUuMTUwNGguMDM0Wm0uMDQzNyAzLjY5NDVjMCAxLjEyNjIuOTEyNyAyLjA0MzggMi4wMzkgMi4wMzkgMS4xMjYzIDAgMi4wMzktLjkxMjggMi4wMzktMi4wMzkgMC0xLjEyNjMtLjkxMjctMi4wMzktMi4wMzktMi4wMzlzLTIuMDM5LjkxMjctMi4wMzkgMi4wMzlabTUuNTI0NiAzLjM2NDNjLS4yNjcuMTAyLS41LjI0NzUtLjcwMzkuMzczOC4wNDg2LjIxODQuMTk5LjcwODguNjMxMS41ODI1LjM1NDQtLjEwNjguMTUwNS0uNzMzLjA3MjgtLjk1NjNabS42MjE0Ljc4MTZjLjExNjYuMDQzNy41Nzc4LjA4MjUuNTM0LS40NzU4LS4wMTQ1LS4xOTQyLS4wMjktLjMzMDEtLjAzODgtLjQyMjQtLjA0MzctLjAwNDgtLjA4MjUtLjAwNDgtLjEyMTMtLjAwNDgtLjEzNiAwLS4yNjIyLS4wMDQ5LS4zNjktLjAwNDktLjExMTcgMC0uMTcuMDA0OS0uMTk0Mi4wMDk3YTkuMzA0NiA5LjMwNDYgMCAwIDAtLjE1NTMuMDI5MmMuMDM4OC4yNTI0LjE0NTYuNzk2MS4zNDQ2Ljg2OVptMS43ODY2LTEuMzc4OGMuNDMyLS4xOTQyLjQzMi0uNTI0My40MDc4LS42OTQyLS4wMjkyLS4xNzk2LS4yOTYyLS41NTgzLTEuMzc4OC0uNTY4IDAgMC0uMzM1Ljc4MTYtMS4yNDI4LjkyNzMtLjkwNzguMTUwNS0xLjI5NjItLjAyNDMtMS40NTE1LS4yMTg1IDAgMC0uODczOS4yNTczLS45NDY3LjgxMDctLjA3MjguNTUzNS42NjAzLjc0NzcgMS4wMDk4LjU1MzUuMzQ5NS0uMTk0Mi44NzM4LS42MTY2IDEuNTczLS43MDg4LjM3MzctLjA0ODYgMS41OTcxLjA5MjIgMi4wMjkyLS4xMDJabTIuNDcxLTQuMjMzM2MwLTEuMTI2Mi0uOTEyNy0yLjAzOS0yLjAzOS0yLjAzOXMtMi4wMzkuOTEyOC0yLjAzOSAyLjAzOWMwIDEuMTI2My45MTI3IDIuMDM5IDIuMDM5IDIuMDM5czIuMDM5LS45MTc1IDIuMDM5LTIuMDM5Wk0zLjExNjIgMTguMTk3NWMtLjA0MzcuMjY3LS4wNzI4LjYxMTctLjAyNDMuOTU2NC0uNjYwMi0uMTQwOC0xLjAzNC0uMzA1OC0xLjAzNC0uNDc1NyAwLS4xNy4zODM1LS4zMzUgMS4wNTgzLS40ODA3Wm0xOC40ODY2LjAzODljLjU3MjkuMTM2Ljg4ODQuMjg2NC44ODM2LjQ0MTggMCAuMjQ3Ni0uNzY3LjQ3NTctMi4wNjMzLjY1NTMuMjMzLS4wNjMuNDk1Mi0uMjMzLjc5NjItLjUxNDYuMTUwNS0uMTQwNy4yNjctLjMxMDcuMzQ5NS0uNWEuNTkyMi41OTIyIDAgMCAwIC4wMzQtLjA4MjVabS0uMzQ5NS0uMDcyOGExLjA0NTMgMS4wNDUzIDAgMCAxLS4yNzY3LjM4ODNjLS4zODg0LjM2OS0uNjIxNC40NDY3LS43NTI1LjQ0NjctLjI1NzMgMC0uNDQ2Ni0uMzU5My0uNTU4My0xLjA2MzItLjAwNDktLjA0ODYtLjAxNDYtLjA5NzEtLjAxOTQtLjE0NTYtLjA5MjMtLjY5OTEtLjQxMjctMS4wMzktLjY0NTctMS4yODE3LS4yMDM5LS4yMTM2LS4zMDEtLjMzMDEtLjI2MjEtLjU0ODYuMDUzNC0uMzE1NS40MzY5LS4zODM1Ljc0NzYtLjM4MzUuMTQ1NiAwIC4yNTczLjAxNDYuMjU3My4wMTQ2aC4wMTk0Yy41NzI4LjAwOTcgMS4xNy41MjkxIDEuNDUxNSAxLjI1MjUuMTU1NC4zOTguMjE4NS45MDMuMDM4OSAxLjMyMDVaTTQuNzA4NSA2LjM2MThjLS4xMDY4LS4xNDU2LS4yMTM2LS4yNjctLjMyNTMtLjM1OTItLjAwOTctLjM5ODEtLjAwOTctLjc1NzQuMDA5OC0uODk4MS4wMzg4LS4yNjIyLjY4OTMtMS4wMjQ0IDEuMjk2Mi0xLjYwNy41MDk3LS40OTAzIDEuNDg1NS0xLjMzNSAyLjMwMS0xLjUuMTI2My0uMDI0My4yNzItLjAzODkuNDQxOS0uMDM4OSAxLjU1MzUgMCA0LjY5OTMgMS4xNjUxIDQuODU0NiAxLjMyMDVsLjAwOTcuMDA5N2MuMDM4OS0uMzc4Ny4wNzc3LS45MDc4LjAwOTgtMS4wNTgzIDAgMCAuMjk2LjA5MjIuMzQ5NS4yNzY3IDAgMCAuNzMzLS43MzguNjYwMi0xLjY1NTQgMCAwIC4xNjUgMCAuMTg0NS4yOTYgMCAwIC41MjkyLTEuMjUyNC45MTc1LTEuMTQwOC4zODg0LjExMTctLjEyNjIgMS44NTk0LS40MDI5IDIuMTg5NSAwIDAgLjQ0MTgtLjEwNjguNDk1Mi0uNDAzIDAgMCAuMDUzNC4yNTc0LS4wMTk0LjQwMyAwIDAgLjk5NTItLjgxMDcuOTU2My0xLjEyMTQgMCAwIC4xMzExLjMxNTUuMDkyMy41NTM0IDAgMCAuODI1My0uNjYwMi44MjUzLS45MzcgMCAwIC4xMjYyIDEuNjAyMS0xLjQ3MSAyLjE4OTUgMCAwIC40MjI0LS4wNTM0LjYyNjMtLjA5MjIgMCAwLS4xNzQ4LjIyODEtLjQ0MTguNTUzNC0uMTYwMi0uMTAyLS4zNDk2LS4xNTA1LS41NjMyLS4xNTA1LS42NDA4IDAtMS4yMjgyLjQ4NTUtMS43NDc2IDEuNDQxOS4wNzc2LS40MTc1LS4wMjkyLS43NTc0LS4xODQ1LS43OTE0LS4wMDQ5LS4wMDQ4LS4wMTQ2LS4wMDQ4LS4wMjQzLS4wMDQ4LS4xNjAyIDAtLjM4ODQuMjc2Ny0uNDgwNi42ODk0LS4wOTIzLjQzNjkuMDE0Ni44MDU4LjE3NDguODM5OC4wNTgyLjAxNDYuMTMxLS4wMTk0LjIwMzktLjA4NzQtLjE1MDUuMzU5My0uMjY3LjY5NDItLjM0NDcuOTMyMS0zLjk3NiAxLjc5MTQtNi41MDUzIDEuNzUyNy03LjY1NiAxLjU3My0uMDgyNS0uMjEzNy0uMjMzLS41Nzc4LS40NDE3LS45NDE5LS4wNTgzLS4wOTctLjExNjYtLjE5NDEtLjE3NDgtLjI4MTUgMi43NzY5Ljc0NzYgNi40NzYxLS42NTA2IDcuOTU2OC0xLjI5NjItLjA3NzctLjIxODUtLjA4NzQtLjUtLjAxOTQtLjgwNi4wNjMxLS4yOTYuMTk0Mi0uNTQ4NS4zNTQ0LS43MTg0LS4wMjkxLS4xMTY1LS4wNTM0LS4xOTktLjA3MjgtLjI0MjctLjMzOTktLjE4NDUtMy4xNTU2LTEuMjMzMS00LjYyNjUtMS4yMzMxLS4xNDU3IDAtLjI3Mi4wMTQ1LS4zNzg3LjAzNC0xLjMwMS4yNjctMy4yNzcgMi41MjkyLTMuMzQ5NyAyLjg0OTctLjAyNDMuMTU1My0uMDE0Ni42Nzk2LjAwNDggMS4yMTM2WiIvPjwvc3ZnPg==;" parent="53nCyL3O7BwKtmrme-u4-33" vertex="1">
          <mxGeometry x="4.524590163934427" y="4.5952530306787835" width="30.16393442622951" height="30.635020204525226" as="geometry" />
        </mxCell>
        <mxCell id="53nCyL3O7BwKtmrme-u4-32" value="" style="shape=image;verticalLabelPosition=bottom;labelBackgroundColor=default;verticalAlign=top;aspect=fixed;imageAspect=0;image=data:image/png,iVBORw0KGgoAAAANSUhEUgAAAgAAAAIACAMAAADDpiTIAAACDVBMVEVMaXH8rgBAW8lCWsf3rABAXMf1pwA/WshBXclAWsdAWsdCVsX5qwBAWsf1qQD1qQD/rwD/tAD/pwD/qwD1pwD1pwD/pQBBXcj1pwBAWsf1pwD/nQD1qQD1pwD1pwD1pwBCWsdAWsdAWsf1qQD1qQBAXMk+WMn1qQD4qgD5qQBCXMf1pwD1pwBCWsc+XMn3qgBBW8f1qAA+WMezZgD1qQD5qQBBW8j5qgD1qABAW8j1qQD2qQD/pwD3qQD1qQD1qAD1qQD1qQBAXMdBWsj3qwBAW8f1qQD1qAD3qQD1qQD1pwBAWshCWsf1qQBCWsf1qABAXMf1qAD/qQD1qAD1qQD1qQD1qQBAWsg6WMU9WcpCW8f3qAD1qQBCWsf3qQA/WM31pwBAXMn1pwD1qABBWsf3qgD1qQD1qQD1pwBBW8f1qABCWsdAWshBW8dBW8dBXMj3qQA7V831qQD1qQBCXMf1qQD1qABBWsf1qQA8WspAW8f1qABBW8crZ+/1qQD3qAD1qAD1qABCXMf1qQD1qQBAW8j/sQBBW8hAXMdBWshAW8f1qQD1qQBAW8f1qABAWsdAW8hBW8j1pwBAWsr1pwBAW8c1WspAXMf1pwD/qwBBXMf1qABAWsf/qwD2qAD1qAD3qABAWsdAWsf1pwD3pwD3pwBBW8f3qQD3pwD3rQBAXMdAWsf1qQBCXMdAWsedQaKEAAAArHRSTlMAFjTxHudoHibj9yIm887ZEgYKCOEaDhrdK8ME5b3qyenr3+v2LjjtICzl5LeHIBr68TAB3yJgKec+lHMQOp/0+5frWzfvfcBa0xY64a7tYHb9FDT3xzFWGheCVJqPbBPvbtePtz3b0aOMR2hL3cRlPwu6Lv2mSqJlDs2xvQJPQ4LL0dezQQx7UGuYeEyqaUZyftsjxtcH96USpoaeDIuqiG6RLlA6klZvHIWxeV7FaQAAAAlwSFlzAAALEwAACxMBAJqcGAAAEr9JREFUeNrtnftfFUUfx9eQxFdCSuL1JZovLZVK0RAUBLFC1Af1eEnJG3mDxxRNLRUxvFdqF694Sx+LMnPmf3xe2E2UM7t7zuzuLN/352c4Ozvv98zuzu7MeB4hhBBCCCGEEEIIIcRK5v6yZ/YwqkFmZl0+o54ls3w7EohL9Un1XDL1ZVSJpLyxVQ1MRp2mVuRk3Rn1ct4ZQ8UISdUENVjOjKZqZNz91ajBcw4DRPPHAOn8MUA6fwwY8hll5o8BQ51/uVIYAH8MgD8GwB8DZKU6KH8MGJr825TCAPhjAPwxAP4YICtHwvPHgKHEv1IpDIA/BsAfA+CPAbKyPh/+GJB+/g1KYQD8MQD+GAB/DJCVJXb4Y0Ba+c9QCgPgjwHwxwD4528Aa0iI5q/UBAxITw7Z548BaeK/QSkMkJs9KqKcW0nlpiBz26ISgD4gDSndqRQGCM4upTBAcIYvVRggOV8ohQGCMy6jMEBympXCAMnpUBggOisUBohOucIA0ckoDBAdFVeu8V7AyTTEZgB9gJPZqzBAdG4oDBCdXQoDRGePwgDZqcEA2alVGCA6k8digOx8uDSDAaLzvaIPkJ3bGCD8NuAdDMCAeA1g62nhBozFAAwgGEAwgGAAwQCCAQQDCAYQDCAYQDCAYADBAIIBBAMIBhAMIBhAMIDEZsAUDJCdMRiAARiAARiAARiAARiAARiAARiAATEYMJxKl21ABQZgAIkwm7/ddmz37rvbHm3GAIH5tkv/k661n2OAqJz6bKQ+qp/LtEe3MEBOTnTql9K1AwOkZPxNPUimv4YBMlI0Rw+a1fMxQEKuF+osKZiJAZL5Y4B0/hggnT8GSOePAdL5Y4B0/hggnT8GSOePAdL5BzWgdBIGDE3+GCCdPwZI548B0vljgHT+GCCdPwZI548B0vljgHT+GCCdPwZI5++uAbOAGwt/rQtecdKAGgyIh7/WxRggmj8GSOePAdL5Y4B0/hggnT8GpC0jLPPHgJTxH6k1BsAfA+CPAfDHAPgPcQMqnoA9Fv6BDZgaswE7SwEfC/+gBvy0MWYDTkI+Hv7O9gFfwj4e/q4aUAL8mPi7ehXYB/6Y+DvaB3TAPy7+bhrQBv/Y+Lt5FVgCf+2aAbH2AWvgL9uAJvjLNqAR/rINaIS/bAOa4B+7AatcMuA4/GNPbyADLsbzNLgH/q4aEEsfULkA/qINuA1/2VeBffAX3Qe0w1+2Afvg7/pVIFIDWuAvug9ofwP+kvuAmjKJ/Mc7wz/pPqCmSiT/6VpjQH/K4S/agPJR8E+RASXwH5r8gxowrgT+Q5N/MgbAX7YB8JdtAPxlGwB/2QbAX7YB8JdtAPxlGwB/2QbAX7YBMvm3HtApSe+iaA2Qyf/WWa0xQC7/U0+1xgC5/L2FWmNAf96Wyf/UfzQGPOM/WyR/76DWGCCYv9elMUAy/x1aY4Bg/t4HGgMk8/cu6XQacMGmAYL5e7u1Ft8HSOafxntA2waI5u8d0Kk1wNJVQDZ/r1PrId4HtMPflKd6qBtQ1w5/Q37Wac6FfA0Qz9/7JtUC5NsHwN87odOdQAbcyXInWP6LR7rTLUBBUZCTLD05GP9zw8HveRdS3gVMPxHoNJsyL/F/h00hUz0W+HfuBzvND88MxD+2eQHsn2Vib8oNeC3giTa3vP03/Q1Tat+A/N/ZfzTdAhwLfqpHvlpTe/l43xKgD8jBdAsw73MQ5pm16TZgPwRlG/AbAPPO12kWoAt+svuAaeATbgD0hF8FeAyQ3QfMg51sAw6AzlKuplOAbsjZyrupFOAq4GQb8Arc7OUThgHoA1KWT4Em2oDpp2BmN3/wLpA+ID3ZBi/RBnRxARD9LDB9PLAk9wHwl23ASPiLNmDkCDBJNgD+sg2Av2wD4C/bAPjLNgD+MWWbm/wL4S/agMLrgJFsAPxlGwD/mPPfHD7U7r5/deEPb828Pv6E551oHVE0861FC999amVZ0mlFIHHYgN7OnxdOzP5TMzd90l0M/yFqQOF3j+Z7AVbemf/o7n/gn2BW/dZ5oFjP6br7jT0DCu4enBimDK0LO+GfTH4c+W99Fv/casWA3ZtyKMiIq6F3rH0T/vnmgxc63+KreRtwc23Or+UX3S+g/ceZW3dfrtWzwfBlexrs/iG/Eh28GZj/Mvjnmc2D7g+y7ELufcBTC9Oy9nfDP55k3SV+f44GHLOEZP7dIPwnQjBP/gfynFzxggHf2WuRCzYf873/g3++/b/hnnteMAOevw/onm+3eIsO0P8n0///mW/CGdB1wX4Jv6b/T6j9h+4Den+MZD7O5qwLl6+Gf3TX//B9QPdrURVz07LB+c+EYLTt/1kfEMyASwWfRVjQ1t20/2Taf3+Cjee2RlrUBY9o/4m0//4c/caF0s68SftPhr8rBty6BP8E+v8wV4Gos+m518z0/7G1/2d9gBsGXPh7H6OC+RCMk78zfcArH8E/Gf6uGFA0B/7J8HfFgM3T4Z8Mf60/cKLwrZ3wT4a/KwaQPDMiV/4YMDT4z8lj+gUGyOZvxYAnh75qPl7bVPt9c19PFUDSxV/rg3kc/OKV0y3tMwbu1v36+QePR8MlNfxzN+DKrhc2an8uK7ZuuQicdPDPyYAFPfWVypwNLX1jAJQG/uENGP6gRgVJZWM1jFLAX+tvwxy1umOpCprM+Q/B5D7/MAasP6/CZdI+SEWT90baW42lIOCmrFUPVfgsPwIst9u/1gsDHXJY41KVSzIdT+DlNP/OQIf8vkHlnCaIOcy/N8hyjKUtKp8cXgc0V/nrRwGO+Mv7Kr/ULAGbo/zPBjjiGpV/LgPOSf5BtuS9rGxkMehc5H/X/4iLlZ20TIaec/x7/aeA1StbmVIKv7zHf+zy1/6rh3Uoe5mKAW61f13sOwbYqGxmOVcBp/jrP/yO2KTs5uECKDrEv/eEzxFfVbZTD0Z3+Pvuyf2lsp9aQDpy/6e19lk9dHR5BAIs/RiUufGfZp3/dz6HPKyiyAS+FXOEv/ZZBG67iiaN0HSD/wHzIas3RCSA+hKeLvDXP5qPeSMq/qqG8aCQuT4nAv7a/Ay4RkWX/4E0+favnxqPWRfmCaBh742dbWEMGAXUxPn7fAkY9BXgins9o/7q0Wf9enlS0NdCUE2c/1Hja4BRwThuH/5ix9Hcwn1gKvjr3cajBnkHvHHwaR9VDzMB5gsANmH+2rgWcJn/F+DtV7L+95Hl/gasB22y/LXxS5AHvgAfGF/rHfcdQzgJ22T5G0eB6mb44JvR51Pwj/0mkGZ4EEiUv76fzyDwXv95v+s2+vzGLvAmyd+8OIzPIOCkcUFK73MfWQHfJPkbbwHm+qCrC1T8BSfNP3MIwuYUFUbIf7rpyOZ5AA2B1324wUtBV9u/eRy43Xj31hP4FJ4YF5Jp4/PA5PgbvwY1XwFqQ3BrNv4S0wWT429cKtqIrT3UaSxntqCb/LVph5atJmrhlnypNo0KvwPnbLleGDF/bTr6NdPcnpBnYnoWrOQmIKn2bxwHXGnqAHpCnkpVhvcBDvLX3YbDmyYDXAt9Mqa3w8dhPejzf/T8jQPBtaZXQKHPptnqr4ng/2b0/I2TghutPrmVmhYMgHZC/I2fgxke3cpzOCHDz+0Ed0L8tWkX+Qq7MztPGwYV4Z0Qf+OcIEOfvT2HU7pi+L1hEE+Gv2llqDEGYFtyOCfT56XsMJIQf12UvRDjDMB+zeWsDL/HROGE+JvmhQ+z3WLL7Q0rDe1MXBYbf73DMHZnECCnFX4MI8t9UE+k/ecsQE4nVpL99x6DPRn+pg/CTK8CynI5s9eZH+Qcf705e0l+sn3TVsNngc7x1+/ldteeS4sdw+tAt+7//B4DvQa7r++OMEvcufZvXiK8wu6C382MBLrH3/guYJLdyRyGl4sbYJ8Qf+PbwHq7I0E7s/9aCfAT4m9cH8o0LeT30KdnGlb4AvoJ8dfvGkq0xeqHvKbVpk+DP/77f/9PwqpNH4XeCXuCExQDgc61f607TxkKVWnxM76vTDathH9C/HWBqVTGWb0hR4NNy4bthX9S/M2zw02fBautoc6wj60DTNf/5PjrRYZyrbe2tMuYsaZfWiOc/8yPkuOvD5pKZlz080yIhX7Ni4SUCW//qxPkry/lzi34+l7mDWduwD/BnDVNzNxnXtsl6ON7j3mxwe3wTzBHTUuFL/BZ+DnYx8GzzfvNZ4bBP8n8YCqez2aBS4Pcvh3ysegw/BPN16by/Zr/ri+/+/2E5GeAHSMT5687jSU847sFqHmpuMm+i01XCN5D9FZX8vz1vM9zHsD5c9uX4waCV3ayfaAhn2gXsslYxnMBtorI9oXgkQDbRlT+JPgC0OuEAMbFgoPtGLR8sK96j9wO8q+S3wTfd4K/XmYu5YRAG3+U1/cNGBjs2RXs/9pGy+V/4qgbAui3jMXcF3xL+NsPapt7Hv9+r/5wQ9D/eVVwB7DJEf76N3M5T0a4bVy7YP7eMVcEWH3KWM4nkW0cqjKiJ4ScdUUA82Cg35rhbB6cawqdEeCYuaCTSyLiP0H2zrHO8NfFO8wlndUQzQVA+Log7ghgfh/Qv/dXJAI0yebvvemOAKtvefE/CUyVvkT0TYe6gG99ylq30zr/mifC+Xt3HRJgzimfwpaNtcy/jRnhC10SYIdfaWeVW+W/gSUhvFZ3+I8c4V/c6jabDwCsC+d53u408fe89RYNYDJgf95KFX/PG1VjCf8M2r9LXUBQ/p735Jqd+z+u/3/lvdWp4u95d2wMCtdw//9PVs1LnH/hiDAFLq3Pm/8kFoR6Lol/EzDtesgSN8/I7/b/NFvEDcgHyX4WVHg9dImr8xkUrGGXWKcMyIG/55WezvkLka10/04ZkBP//mWkt2ZywX+euz+3DMiVf/914Hz4l397QO2WAXnwf/bVf6he4DBjP64ZkB///tdDjUHvBTIP2RPIOQPy5t//lcCrkwJ0A+21ZRD2NSD26UDX7RR8+GXz/OEV96qhGyQxfxywrMhe0S9eeXBmsI4gs2LxltGQddIAm/z/uif86nL9lJJrNQ2qoXxvyfKOpsfrS4HqqgH2+ZM0GQB/2QbAX7YB8JdtAPxlGwB/2Qashr/r+SxS/hOpYMkGwF+2AfCXbQD8ZRsAf9kGwF+2AfCXbUAB/EUbUDCfCk1dPoU/BsAfA+CPAfDHAPhjAPyHRNbXLn44paWx6VA8BsDfqVzc9e9KazM6yqI3oBj+LmXNwMU2G5qiNqD4FSrdnZS2vDxlPlAnsDZ3/qzH406qBlttue1QhAbQ/l3K8MFX2WxYEpkBtH+n+FdkmT4dmQG0/1Twj8wA2n9K+EdkAO0/NfwjMYD2nyL+QQ24SvtPZ+ZW+C6jFMyAdwPzX0X7d4j/+wHWUbNqQC/808bfqgG0/xTyt2hA7ypqPYX8rRlA+08pf0sG0P5dysr3Qy2nbcEA2r9T/MPusZW3AbT/VPMPasC2rPwvUOup5p+nAfB3KcPO5bSpTkOghfUfDba6/DTGf9Pe/p9tq7UuyM9fKHiJf9d4an0I8Fdq6uQgB2i9NHDLyTc/vUWtu5N1+eyxWxvsGEWX/u0FDnx9gkqPLaNn/1plXgp/WD5bK6rywOvs77/6LGtnAiW29HX8ObWjxLATSn78lXpMNTuL/zm0mY5ZWfr/PPmr21S0m5l8ciCoDVsi4a/aGM51Mnde3h7rnv3+vz9VVLaL7X/jIKgaX/yrOgv81YfUtoN5OCirxS88IbRb4K/2UdvupScLrAF9QJ0V/upLqtu9bFT+Bljir9ho1718nB3XP1eBOyV2+Kth1LdzaTLwarTb/lU5j4HuZappc/TFVvm//GhBkk+lH7Jxtvp/pa5Q3e7Fr9HW2eN/jdp2L3W+121r/HkIdDJLVVzhVZCTGRsX/+XUtZPpiIn/63XUtZNpjof/tZVUtZsZ1xAL/zJq2tXco/0LfxCsjJz/BNq/y+nJRMz//blUstNZE3H7f0IVO55Xaf8YAH8MgD8G2E4F/EUbUDGcipVsAPxlGwB/2QbAX7YB8JdtAPxlG1ADf9EG1DARXLQB8JdtAPxlGwB/2QbAX7YB5fAXbUD5KKpPsgHwl20A/GUbAH/ZBsBftgFvw1+0AW/PpsokGwB/2QbAX7YB8JdtAPyHbL4PJEAHFSW8D1hMRWEAwQCCAQQDCAYQDCAYQIZQtgcy4AEVJbwPqKWihPcBbAshvA8Yy9Zgwg1opp5kXwXOUE3C+4B1VJPsPmANtSS7D/gflSTbAPaHE34VOEkVye4DtlJDsvuAJipIdh/QQ/2INqCSsWDZV4FGKkd0H7CUTcJk9wE8A8juA9pLqRjJfQC7RIlK34YX+K9gl2BZWb9zAP96+n9xOX7tH/znf6E6JKb698UthzvuPR5HVRBCCCGEEEIIIYQQ4lb+Dx0vZ/lQ4ZdSAAAAAElFTkSuQmCC;" parent="53nCyL3O7BwKtmrme-u4-33" vertex="1">
          <mxGeometry x="34.68852459016394" y="4.5952530306787835" width="28.156062525637573" height="28.156062525637573" as="geometry" />
        </mxCell>
        <mxCell id="53nCyL3O7BwKtmrme-u4-36" value="" style="endArrow=classic;html=1;rounded=0;exitX=0.75;exitY=1;exitDx=0;exitDy=0;entryX=0;entryY=0.25;entryDx=0;entryDy=0;" parent="WIpk6FryHPEbsidNHlYV-15" target="53nCyL3O7BwKtmrme-u4-30" edge="1">
          <mxGeometry width="50" height="50" relative="1" as="geometry">
            <mxPoint x="770.3693442622952" y="824.9198383637981" as="sourcePoint" />
            <mxPoint x="800.5332786885248" y="932.1424090796364" as="targetPoint" />
          </mxGeometry>
        </mxCell>
        <mxCell id="53nCyL3O7BwKtmrme-u4-39" value="Trace Data" style="edgeLabel;html=1;align=center;verticalAlign=middle;resizable=0;points=[];rotation=0;fontSize=18;" parent="53nCyL3O7BwKtmrme-u4-36" vertex="1" connectable="0">
          <mxGeometry x="0.2325" y="1" relative="1" as="geometry">
            <mxPoint x="-37" y="-37" as="offset" />
          </mxGeometry>
        </mxCell>
        <mxCell id="53nCyL3O7BwKtmrme-u4-37" value="" style="endArrow=classic;html=1;rounded=0;exitX=0.5;exitY=1;exitDx=0;exitDy=0;entryX=0.525;entryY=-0.06;entryDx=0;entryDy=0;entryPerimeter=0;" parent="WIpk6FryHPEbsidNHlYV-15" source="53nCyL3O7BwKtmrme-u4-5" target="53nCyL3O7BwKtmrme-u4-30" edge="1">
          <mxGeometry width="50" height="50" relative="1" as="geometry">
            <mxPoint x="785.45131147541" y="840.2373484660608" as="sourcePoint" />
            <mxPoint x="845.779180327869" y="932.1424090796364" as="targetPoint" />
          </mxGeometry>
        </mxCell>
        <mxCell id="53nCyL3O7BwKtmrme-u4-42" value="Trace Data" style="edgeLabel;html=1;align=center;verticalAlign=middle;resizable=0;points=[];fontSize=18;" parent="53nCyL3O7BwKtmrme-u4-37" vertex="1" connectable="0">
          <mxGeometry x="-0.2154" y="1" relative="1" as="geometry">
            <mxPoint as="offset" />
          </mxGeometry>
        </mxCell>
        <mxCell id="53nCyL3O7BwKtmrme-u4-38" value="" style="endArrow=classic;html=1;rounded=0;exitX=0.5;exitY=1;exitDx=0;exitDy=0;entryX=1;entryY=0.25;entryDx=0;entryDy=0;" parent="WIpk6FryHPEbsidNHlYV-15" source="53nCyL3O7BwKtmrme-u4-3" target="53nCyL3O7BwKtmrme-u4-30" edge="1">
          <mxGeometry width="50" height="50" relative="1" as="geometry">
            <mxPoint x="800.5332786885248" y="855.5548585683234" as="sourcePoint" />
            <mxPoint x="830.6972131147542" y="962.7774292841616" as="targetPoint" />
          </mxGeometry>
        </mxCell>
        <mxCell id="53nCyL3O7BwKtmrme-u4-44" value="Trace Data" style="edgeLabel;html=1;align=center;verticalAlign=middle;resizable=0;points=[];fontSize=18;" parent="53nCyL3O7BwKtmrme-u4-38" vertex="1" connectable="0">
          <mxGeometry x="-0.4594" y="1" relative="1" as="geometry">
            <mxPoint as="offset" />
          </mxGeometry>
        </mxCell>
        <mxCell id="53nCyL3O7BwKtmrme-u4-71" value="" style="group;fontSize=18;" parent="WIpk6FryHPEbsidNHlYV-15" vertex="1" connectable="0">
          <mxGeometry x="1759.7463934426232" y="717.6972676479598" width="180.98360655737707" height="91.90506061357569" as="geometry" />
        </mxCell>
        <mxCell id="53nCyL3O7BwKtmrme-u4-69" value="&lt;font style=&quot;font-size: 18px;&quot;&gt;Users&lt;/font&gt;" style="rounded=0;whiteSpace=wrap;html=1;" parent="53nCyL3O7BwKtmrme-u4-71" vertex="1">
          <mxGeometry width="180.98360655737707" height="91.90506061357569" as="geometry" />
        </mxCell>
        <mxCell id="53nCyL3O7BwKtmrme-u4-60" value="" style="points=[[0.35,0,0],[0.98,0.51,0],[1,0.71,0],[0.67,1,0],[0,0.795,0],[0,0.65,0]];verticalLabelPosition=bottom;sketch=0;html=1;verticalAlign=top;aspect=fixed;align=center;pointerEvents=1;shape=mxgraph.cisco19.user;fillColor=#005073;strokeColor=none;" parent="53nCyL3O7BwKtmrme-u4-71" vertex="1">
          <mxGeometry x="6.78688524590164" y="7.6587550511313065" width="28.156062525637573" height="28.156062525637573" as="geometry" />
        </mxCell>
        <mxCell id="53nCyL3O7BwKtmrme-u4-74" value="" style="endArrow=classic;html=1;rounded=0;exitX=0;exitY=0.5;exitDx=0;exitDy=0;entryX=1.064;entryY=0.434;entryDx=0;entryDy=0;entryPerimeter=0;" parent="WIpk6FryHPEbsidNHlYV-15" source="53nCyL3O7BwKtmrme-u4-69" target="53nCyL3O7BwKtmrme-u4-72" edge="1">
          <mxGeometry width="50" height="50" relative="1" as="geometry">
            <mxPoint x="1277.1234426229507" y="824.9198383637981" as="sourcePoint" />
            <mxPoint x="1427.9431147540984" y="748.332287852485" as="targetPoint" />
          </mxGeometry>
        </mxCell>
        <mxCell id="53nCyL3O7BwKtmrme-u4-76" value="Website" style="edgeLabel;html=1;align=center;verticalAlign=middle;resizable=0;points=[];rotation=0;" parent="53nCyL3O7BwKtmrme-u4-74" vertex="1" connectable="0">
          <mxGeometry x="0.6129" y="1" relative="1" as="geometry">
            <mxPoint x="31" as="offset" />
          </mxGeometry>
        </mxCell>
        <mxCell id="53nCyL3O7BwKtmrme-u4-75" value="" style="endArrow=classic;html=1;rounded=0;exitX=0;exitY=0.5;exitDx=0;exitDy=0;" parent="WIpk6FryHPEbsidNHlYV-15" source="53nCyL3O7BwKtmrme-u4-69" edge="1">
          <mxGeometry width="50" height="50" relative="1" as="geometry">
            <mxPoint x="1654.17262295082" y="794.284818159273" as="sourcePoint" />
            <mxPoint x="1412.8611475409837" y="809.6023282615354" as="targetPoint" />
          </mxGeometry>
        </mxCell>
        <mxCell id="53nCyL3O7BwKtmrme-u4-77" value="API" style="edgeLabel;html=1;align=center;verticalAlign=middle;resizable=0;points=[];" parent="53nCyL3O7BwKtmrme-u4-75" vertex="1" connectable="0">
          <mxGeometry x="0.1531" y="-1" relative="1" as="geometry">
            <mxPoint as="offset" />
          </mxGeometry>
        </mxCell>
        <mxCell id="53nCyL3O7BwKtmrme-u4-80" value="" style="group" parent="WIpk6FryHPEbsidNHlYV-15" vertex="1" connectable="0">
          <mxGeometry x="100.73000000000002" y="464.9583509606267" width="184.32155272253888" height="520.7953434769288" as="geometry" />
        </mxCell>
        <mxCell id="53nCyL3O7BwKtmrme-u4-47" value="" style="rounded=0;whiteSpace=wrap;html=1;" parent="53nCyL3O7BwKtmrme-u4-80" vertex="1">
          <mxGeometry y="-45.95253030678784" width="150.81967213114754" height="566.7478737837166" as="geometry" />
        </mxCell>
        <mxCell id="53nCyL3O7BwKtmrme-u4-45" value="" style="shape=image;verticalLabelPosition=bottom;labelBackgroundColor=default;verticalAlign=top;aspect=fixed;imageAspect=0;image=https://upload.wikimedia.org/wikipedia/commons/thumb/f/ff/US-NationalWeatherService-Logo.svg/600px-US-NationalWeatherService-Logo.svg.png;" parent="53nCyL3O7BwKtmrme-u4-80" vertex="1">
          <mxGeometry x="30.16393442622951" y="15.317510102262613" width="84.46818757691271" height="84.46818757691271" as="geometry" />
        </mxCell>
        <mxCell id="53nCyL3O7BwKtmrme-u4-46" value="Hail Report" style="sketch=0;pointerEvents=1;shadow=0;dashed=0;html=1;strokeColor=none;fillColor=#505050;labelPosition=center;verticalLabelPosition=bottom;verticalAlign=top;outlineConnect=0;align=center;shape=mxgraph.office.users.csv_file;" parent="53nCyL3O7BwKtmrme-u4-80" vertex="1">
          <mxGeometry x="29.409836065573774" y="156.23860304307865" width="88.98360655737704" height="65.86529343972923" as="geometry" />
        </mxCell>
        <mxCell id="53nCyL3O7BwKtmrme-u4-48" value="Wind Report" style="sketch=0;pointerEvents=1;shadow=0;dashed=0;html=1;strokeColor=none;fillColor=#505050;labelPosition=center;verticalLabelPosition=bottom;verticalAlign=top;outlineConnect=0;align=center;shape=mxgraph.office.users.csv_file;" parent="53nCyL3O7BwKtmrme-u4-80" vertex="1">
          <mxGeometry x="29.409836065573774" y="281.8421858816321" width="88.98360655737704" height="65.86529343972923" as="geometry" />
        </mxCell>
        <mxCell id="53nCyL3O7BwKtmrme-u4-49" value="Tornado Report" style="sketch=0;pointerEvents=1;shadow=0;dashed=0;html=1;strokeColor=none;fillColor=#505050;labelPosition=center;verticalLabelPosition=bottom;verticalAlign=top;outlineConnect=0;align=center;shape=mxgraph.office.users.csv_file;" parent="53nCyL3O7BwKtmrme-u4-80" vertex="1">
          <mxGeometry x="29.409836065573774" y="401.31876467928043" width="88.98360655737704" height="65.86529343972923" as="geometry" />
        </mxCell>
        <mxCell id="53nCyL3O7BwKtmrme-u4-143" value="NOAA/NWS" style="text;html=1;align=center;verticalAlign=middle;whiteSpace=wrap;rounded=0;" parent="53nCyL3O7BwKtmrme-u4-80" vertex="1">
          <mxGeometry x="31.672131147540988" y="-38.293775255656534" width="90.49180327868854" height="45.95253030678784" as="geometry" />
        </mxCell>
        <mxCell id="53nCyL3O7BwKtmrme-u4-86" value="" style="group;fontSize=18;" parent="WIpk6FryHPEbsidNHlYV-15" vertex="1" connectable="0">
          <mxGeometry x="1533.5168852459014" y="978.0949393864242" width="180.98360655737707" height="91.90506061357569" as="geometry" />
        </mxCell>
        <mxCell id="53nCyL3O7BwKtmrme-u4-84" value="&lt;font style=&quot;font-size: 18px;&quot;&gt;Database&lt;/font&gt;" style="rounded=0;whiteSpace=wrap;html=1;" parent="53nCyL3O7BwKtmrme-u4-86" vertex="1">
          <mxGeometry width="180.98360655737707" height="91.90506061357569" as="geometry" />
        </mxCell>
        <mxCell id="53nCyL3O7BwKtmrme-u4-85" style="shape=image;editableCssRules=.*;image=data:image/svg+xml,PHN2ZyB2aWV3Qm94PSIwIDAgMjQgMjQiIHhtbG5zPSJodHRwOi8vd3d3LnczLm9yZy8yMDAwL3N2ZyI+PHN0eWxlPip7ZmlsbDojNDE2OUUxfTwvc3R5bGU+PHBhdGggZD0iTTIzLjU1OTQgMTQuNzIyOGEuNTI2OS41MjY5IDAgMCAwLS4wNTYzLS4xMTkxYy0uMTM5LS4yNjMyLS40NzY4LS4zNDE4LTEuMDA3NC0uMjMyMS0xLjY1MzMuMzQxMS0yLjI5MzUuMTMxMi0yLjUyNTYtLjAxOTEgMS4zNDItMi4wNDgyIDIuNDQ1LTQuNTIyIDMuMDQxMS02LjgyOTcuMjcxNC0xLjA1MDcuNzk4Mi0zLjUyMzcuMTIyMi00LjczMTZhMS41NjQxIDEuNTY0MSAwIDAgMC0uMTUwOS0uMjM1QzIxLjY5MzEuOTA4NiAxOS44MDA3LjAyNDggMTcuNTA5OS4wMDA1Yy0xLjQ5NDctLjAxNTgtMi43NzA1LjM0NjEtMy4xMTYxLjQ3OTRhOS40NDkgOS40NDkgMCAwIDAtLjUxNTktLjA4MTYgOC4wNDQgOC4wNDQgMCAwIDAtMS4zMTE0LS4xMjc4Yy0xLjE4MjItLjAxODQtMi4yMDM4LjI2NDItMy4wNDk4Ljg0MDYtLjg1NzMtLjMyMTEtNC43ODg4LTEuNjQ1LTcuMjIxOS4wNzg4Qy45MzU5IDIuMTUyNi4zMDg2IDMuODczMy40MzAyIDYuMzA0M2MuMDQwOS44MTguNTA2OSAzLjMzNCAxLjI0MjMgNS43NDM2LjQ1OTggMS41MDY1LjkzODcgMi43MDE5IDEuNDMzNCAzLjU4Mi41NTMuOTk0MiAxLjEyNTkgMS41OTMzIDEuNzE0MyAxLjc4OTUuNDQ3NC4xNDkxIDEuMTMyNy4xNDQxIDEuODU4MS0uNzI3OS44MDEyLS45NjM1IDEuNTkwMy0xLjgyNTggMS45NDQ2LTIuMjA2OS40MzUxLjIzNTUuOTA2NC4zNjI1IDEuMzkuMzc3MmEuMDU2OS4wNTY5IDAgMCAwIC4wMDA0LjAwNDEgMTEuMDMxMiAxMS4wMzEyIDAgMCAwLS4yNDcyLjMwNTRjLS4zMzg5LjQzMDItLjQwOTQuNTE5Ny0xLjUwMDIuNzQ0My0uMzEwMi4wNjQtMS4xMzQ0LjIzMzktMS4xNDY0LjgxMTUtLjAwMjUuMTIyNC4wMzI5LjIzMDkuMDkxOS4zMjY4LjIyNjkuNDIzMS45MjE2LjYwOTcgMS4wMTUuNjMzMSAxLjMzNDUuMzMzNSAyLjUwNDQuMDkyIDMuMzcxNC0uNjc4Ny0uMDE3IDIuMjMxLjA3NzUgNC40MTc0LjM0NTQgNS4wODc0LjIyMTIuNTUyOS43NjE4IDEuOTA0NSAyLjQ2OTIgMS45MDQzLjI1MDUgMCAuNTI2My0uMDI5MS44Mjk2LS4wOTQxIDEuNzgxOS0uMzgyMSAyLjU1NTctMS4xNjk2IDIuODU1LTIuOTA1OS4xNTAzLS44NzA3LjQwMTYtMi44NzUzLjUzODgtNC4xMDEyLjAxNjktLjA3MDMuMDM1Ny0uMTIwNy4wNTctLjEzNjIuMDAwNy0uMDAwNS4wNjk3LS4wNDcxLjQyNzIuMDMwN2EuMzY3My4zNjczIDAgMCAwIC4wNDQzLjAwNjhsLjI1MzkuMDIyMy4wMTQ5LjAwMWMuODQ2OC4wMzg0IDEuOTExNC0uMTQyNiAyLjUzMTItLjQzMDguNjQzOC0uMjk4OCAxLjgwNTctMS4wMzIzIDEuNTk1MS0xLjY2OTh6TTIuMzcxIDExLjg3NjVjLS43NDM1LTIuNDM1OC0xLjE3NzktNC44ODUxLTEuMjEyMy01LjU3MTktLjEwODYtMi4xNzE0LjQxNzEtMy42ODI5IDEuNTYyMy00LjQ5MjcgMS44MzY3LTEuMjk4NiA0LjgzOTgtLjU0MDggNi4xMDgtLjEzLS4wMDMyLjAwMzItLjAwNjYuMDA2MS0uMDA5OC4wMDk0LTIuMDIzOCAyLjA0NC0xLjk3NTggNS41MzYtMS45NzA4IDUuNzQ5NS0uMDAwMi4wODIzLjAwNjYuMTk4OS4wMTYyLjM1OTMuMDM0OC41ODczLjA5OTYgMS42ODA0LS4wNzM1IDIuOTE4NC0uMTYwOSAxLjE1MDQuMTkzNyAyLjI3NjQuOTcyOCAzLjA4OTIuMDgwNi4wODQxLjE2NDguMTYzMS4yNTE4LjIzNzQtLjM0NjguMzcxNC0xLjEwMDQgMS4xOTI2LTEuOTAyNSAyLjE1NzYtLjU2NzcuNjgyNS0uOTU5Ny41NTE3LTEuMDg4Ni41MDg3LS4zOTE5LS4xMzA3LS44MTMtLjU4NzEtMS4yMzgxLTEuMzIyMy0uNDc5Ni0uODM5LS45NjM1LTIuMDMxNy0xLjQxNTUtMy41MTI2em02LjAwNzIgNS4wODcxYy0uMTcxMS0uMDQyOC0uMzI3MS0uMTEzMi0uNDMyMi0uMTc3Mi4wODg5LS4wMzk0LjIzNzQtLjA5MDIuNDgzMy0uMTQwOSAxLjI4MzMtLjI2NDEgMS40ODE1LS40NTA2IDEuOTE0My0xLjAwMDIuMDk5Mi0uMTI2LjIxMTYtLjI2ODcuMzY3My0uNDQyNmEuMzU0OS4zNTQ5IDAgMCAwIC4wNzM3LS4xMjk4Yy4xNzA4LS4xNTEzLjI3MjQtLjEwOTkuNDM2OS0uMDQxNy4xNTYuMDY0Ni4zMDc4LjI2LjM2OTUuNDc1Mi4wMjkxLjEwMTYuMDYxOS4yOTQ1LS4wNDUyLjQ0NDQtLjkwNDMgMS4yNjU4LTIuMjIxNiAxLjI0OTQtMy4xNjc2IDEuMDEyOHptMi4wOTQtMy45ODgtLjA1MjUuMTQxYy0uMTMzLjM1NjYtLjI1NjcuNjg4MS0uMzMzNCAxLjAwMy0uNjY3NC0uMDAyMS0xLjMxNjgtLjI4NzItMS44MTA1LS44MDI0LS42Mjc5LS42NTUxLS45MTMxLTEuNTY2NC0uNzgyNS0yLjUwMDQuMTgyOC0xLjMwNzkuMTE1My0yLjQ0NjguMDc5LTMuMDU4Ni0uMDA1LS4wODU3LS4wMDk1LS4xNjA3LS4wMTIyLS4yMTk5LjI5NTctLjI2MjEgMS42NjU5LS45OTYyIDIuNjQyOS0uNzcyNC40NDU5LjEwMjIuNzE3Ni40MDU3LjgzMDUuOTI4LjU4NDYgMi43MDM4LjA3NzQgMy44MzA3LS4zMzAyIDQuNzM2My0uMDg0LjE4NjYtLjE2MzMuMzYyOS0uMjMxMS41NDU0em03LjM2MzcgNC41NzI1Yy0uMDE2OS4xNzY4LS4wMzU4LjM3Ni0uMDYxOC41OTU5bC0uMTQ2LjQzODNhLjM1NDcuMzU0NyAwIDAgMC0uMDE4Mi4xMDc3Yy0uMDA1OS40NzQ3LS4wNTQuNjQ4OS0uMTE1Ljg2OTMtLjA2MzQuMjI5Mi0uMTM1My40ODkxLS4xNzk0IDEuMDU3NS0uMTEgMS40MTQzLS44NzgyIDIuMjI2Ny0yLjQxNzIgMi41NTY1LTEuNTE1NS4zMjUxLTEuNzg0My0uNDk2OC0yLjAyMTItMS4yMjE3YTYuNTgyNCA2LjU4MjQgMCAwIDAtLjA3NjktLjIyNjZjLS4yMTU0LS41ODU4LS4xOTExLTEuNDExOS0uMTU3NC0yLjU1NTEuMDE2NS0uNTYxMi0uMDI0OS0xLjkwMTMtLjMzMDItMi42NDYyLjAwNDQtLjI5MzIuMDEwNi0uNTkwOS4wMTktLjg5MThhLjM1MjkuMzUyOSAwIDAgMC0uMDE1My0uMTEyNiAxLjQ5MjcgMS40OTI3IDAgMCAwLS4wNDM5LS4yMDhjLS4xMjI2LS40MjgzLS40MjEzLS43ODY2LS43Nzk3LS45MzUxLS4xNDI0LS4wNTktLjQwMzgtLjE2NzItLjcxNzgtLjA4NjkuMDY3LS4yNzYuMTgzMS0uNTg3NS4zMDktLjkyNDlsLjA1MjktLjE0MmMuMDU5NS0uMTYuMTM0LS4zMjU3LjIxMy0uNTAxMi40MjY1LS45NDc2IDEuMDEwNi0yLjI0NTMuMzc2Ni01LjE3NzItLjIzNzQtMS4wOTgxLTEuMDMwNC0xLjYzNDMtMi4yMzI0LTEuNTA5OC0uNzIwNy4wNzQ2LTEuMzc5OS4zNjU0LTEuNzA4OC41MzIxYTUuNjcxNiA1LjY3MTYgMCAwIDAtLjE5NTguMTA0MWMuMDkxOC0xLjEwNjQuNDM4Ni0zLjE3NDEgMS43MzU3LTQuNDgyM2E0LjAzMDYgNC4wMzA2IDAgMCAxIC4zMDMzLS4yNzYuMzUzMi4zNTMyIDAgMCAwIC4xNDQ3LS4wNjQ0Yy43NTI0LS41NzA2IDEuNjk0NS0uODUwNiAyLjgwMi0uODMyNS40MDkxLjAwNjcuODAxNy4wMzM5IDEuMTc0Mi4wODEgMS45MzkuMzU0NCAzLjI0MzkgMS40NDY4IDQuMDM1OSAyLjM4MjcuODE0My45NjIzIDEuMjU1MiAxLjkzMTUgMS40MzEyIDIuNDU0My0xLjMyMzItLjEzNDYtMi4yMjM0LjEyNjgtMi42Nzk3Ljc3OS0uOTkyNiAxLjQxODkuNTQzIDQuMTcyOSAxLjI4MTEgNS40OTY0LjEzNTMuMjQyNi4yNTIyLjQ1MjIuMjg4OS41NDEzLjI0MDMuNTgyNS41NTE1Ljk3MTMuNzc4NyAxLjI1NTIuMDY5Ni4wODcuMTM3Mi4xNzE0LjE4ODUuMjQ1LS40MDA4LjExNTUtMS4xMjA4LjM4MjUtMS4wNTUyIDEuNzE3LS4wMTIzLjE1NjMtLjA0MjMuNDQ2OS0uMDgzNC44MTQ4LS4wNDYxLjIwNzctLjA3MDIuNDYwMy0uMDk5NC43NjYyem0uODkwNS0xLjYyMTFjLS4wNDA1LS44MzE2LjI2OTEtLjkxODUuNTk2Ny0xLjAxMDVhMi44NTY2IDIuODU2NiAwIDAgMCAuMTM1LS4wNDA2IDEuMjAyIDEuMjAyIDAgMCAwIC4xMzQyLjEwM2MuNTcwMy4zNzY1IDEuNTgyMy40MjEzIDMuMDA2OC4xMzQ0LS4yMDE2LjE3NjktLjUxODkuMzk5NC0uOTUzMy42MDExLS40MDk4LjE5MDMtMS4wOTU3LjMzMy0xLjc0NzMuMzYzNi0uNzE5Ny4wMzM2LTEuMDg1OS0uMDgwNy0xLjE3MjEtLjE1MXptLjU2OTUtOS4yNzEyYy0uMDA1OS4zNTA4LS4wNTQyLjY2OTItLjEwNTQgMS4wMDE3LS4wNTUuMzU3Ni0uMTEyLjcyNzQtLjEyNjQgMS4xNzYyLS4wMTQyLjQzNjguMDQwNC44OTA5LjA5MzIgMS4zMzAxLjEwNjYuODg3LjIxNiAxLjgwMDMtLjIwNzUgMi43MDE0YTMuNTI3MiAzLjUyNzIgMCAwIDEtLjE4NzYtLjM4NTZjLS4wNTI3LS4xMjc2LS4xNjY5LS4zMzI2LS4zMjUxLS42MTYyLS42MTU2LTEuMTA0MS0yLjA1NzQtMy42ODk2LTEuMzE5My00Ljc0NDYuMzc5NS0uNTQyNyAxLjM0MDgtLjU2NjEgMi4xNzgxLS40NjN6bS4yMjg0IDcuMDEzN2ExMi4zNzYyIDEyLjM3NjIgMCAwIDAtLjA4NTMtLjEwNzRsLS4wMzU1LS4wNDQ0Yy43MjYyLTEuMTk5NS41ODQyLTIuMzg2Mi40NTc4LTMuNDM4NS0uMDUxOS0uNDMxOC0uMTAwOS0uODM5Ni0uMDg4NS0xLjIyMjYuMDEyOS0uNDA2MS4wNjY2LS43NTQzLjExODUtMS4wOTExLjA2MzktLjQxNS4xMjg4LS44NDQzLjExMDktMS4zNTA1LjAxMzQtLjA1MzEuMDE4OC0uMTE1OC4wMTE4LS4xOTAyLS4wNDU3LS40ODU1LS41OTk5LTEuOTM4LTEuNzI5NC0zLjI1My0uNjA3Ni0uNzA3My0xLjQ4OTYtMS40OTcyLTIuNjg4OS0yLjAzOTUuNTI1MS0uMTA2NiAxLjIzMjgtLjIwMzUgMi4wMjQ0LS4xODU5IDIuMDUxNS4wNDU2IDMuNjc0Ni44MTM1IDQuODI0MiAyLjI4MjRhLjkwOC45MDggMCAwIDEgLjA2NjcuMTAwMmMuNzIzMSAxLjM1NTYtLjI3NjIgNi4yNzUxLTIuOTg2NyAxMC41NDA1em0tOC44MTY2LTYuMTE2MmMtLjAyNS4xNzk0LS4zMDg5LjQyMjUtLjYyMTEuNDIyNWEuNTgyMS41ODIxIDAgMCAxLS4wODA5LS4wMDU2Yy0uMTg3My0uMDI2LS4zNzY1LS4xNDQtLjUwNTktLjMxNTYtLjA0NTgtLjA2MDUtLjEyMDMtLjE3OC0uMTA1NS0uMjg0NC4wMDU1LS4wNDAxLjAyNjEtLjA5ODUuMDkyNS0uMTQ4OC4xMTgyLS4wODk0LjM1MTgtLjEyMjYuNjA5Ni0uMDg2Ny4zMTYzLjA0NDEuNjQyNi4xOTM4LjYxMTMuNDE4NnptNy45MzA1LS40MTE0Yy4wMTExLjA3OTItLjA0OS4yMDEtLjE1MzEuMzEwMi0uMDY4My4wNzE3LS4yMTIuMTk2MS0uNDA3OS4yMjMyYS41NDU2LjU0NTYgMCAwIDEtLjA3NS4wMDUyYy0uMjkzNSAwLS41NDE0LS4yMzQ0LS41NjA3LS4zNzE3LS4wMjQtLjE3NjUuMjY0MS0uMzEwNi41NjExLS4zNTIuMjk3LS4wNDE0LjYxMTEuMDA4OC42MzU2LjE4NTF6Ii8+PC9zdmc+;" parent="53nCyL3O7BwKtmrme-u4-86" vertex="1">
          <mxGeometry x="10.557377049180328" y="9.190506061357567" width="34.68852459016394" height="36.76202424543027" as="geometry" />
        </mxCell>
        <mxCell id="53nCyL3O7BwKtmrme-u4-87" value="" style="endArrow=classic;html=1;rounded=0;entryX=0;entryY=0.25;entryDx=0;entryDy=0;" parent="WIpk6FryHPEbsidNHlYV-15" source="53nCyL3O7BwKtmrme-u4-3" target="53nCyL3O7BwKtmrme-u4-84" edge="1">
          <mxGeometry width="50" height="50" relative="1" as="geometry">
            <mxPoint x="1283.156229508197" y="1085.3175101022625" as="sourcePoint" />
            <mxPoint x="1358.5660655737706" y="1008.7299595909495" as="targetPoint" />
          </mxGeometry>
        </mxCell>
        <mxCell id="53nCyL3O7BwKtmrme-u4-88" value="Persist&lt;div style=&quot;font-size: 18px;&quot;&gt;Weather Data&lt;/div&gt;" style="edgeLabel;html=1;align=center;verticalAlign=middle;resizable=0;points=[];fontSize=18;" parent="53nCyL3O7BwKtmrme-u4-87" vertex="1" connectable="0">
          <mxGeometry x="-0.1528" y="4" relative="1" as="geometry">
            <mxPoint x="12" y="18" as="offset" />
          </mxGeometry>
        </mxCell>
        <mxCell id="53nCyL3O7BwKtmrme-u4-91" style="edgeStyle=orthogonalEdgeStyle;rounded=0;orthogonalLoop=1;jettySize=auto;html=1;exitX=0.5;exitY=1;exitDx=0;exitDy=0;exitPerimeter=0;" parent="WIpk6FryHPEbsidNHlYV-15" edge="1">
          <mxGeometry relative="1" as="geometry">
            <mxPoint x="773.3857377049181" y="480.2758610628893" as="sourcePoint" />
            <mxPoint x="773.3857377049181" y="480.2758610628893" as="targetPoint" />
          </mxGeometry>
        </mxCell>
        <mxCell id="53nCyL3O7BwKtmrme-u4-100" value="&lt;font style=&quot;font-size: 12px;&quot;&gt;&lt;b&gt;2&lt;/b&gt;&lt;/font&gt;" style="ellipse;whiteSpace=wrap;html=1;aspect=fixed;fillColor=#FFFFFF;strokeColor=#FF8000;fontColor=#000000;" parent="WIpk6FryHPEbsidNHlYV-15" vertex="1">
          <mxGeometry x="641.418524590164" y="687.0622474434347" width="28.156062525637573" height="28.156062525637573" as="geometry" />
        </mxCell>
        <mxCell id="53nCyL3O7BwKtmrme-u4-107" value="&lt;font style=&quot;font-size: 12px;&quot;&gt;&lt;b&gt;1&lt;/b&gt;&lt;/font&gt;" style="ellipse;whiteSpace=wrap;html=1;aspect=fixed;fillColor=#FFFFFF;strokeColor=#FF8000;fontColor=#000000;" parent="WIpk6FryHPEbsidNHlYV-15" vertex="1">
          <mxGeometry x="538.107049180328" y="763.6497979547478" width="28.156062525637573" height="28.156062525637573" as="geometry" />
        </mxCell>
        <mxCell id="53nCyL3O7BwKtmrme-u4-113" value="&lt;font style=&quot;font-size: 12px;&quot;&gt;&lt;b&gt;3&lt;/b&gt;&lt;/font&gt;" style="ellipse;whiteSpace=wrap;html=1;aspect=fixed;fillColor=#FFFFFF;strokeColor=#FF8000;fontColor=#000000;" parent="WIpk6FryHPEbsidNHlYV-15" vertex="1">
          <mxGeometry x="907.6152459016394" y="687.0622474434347" width="28.156062525637573" height="28.156062525637573" as="geometry" />
        </mxCell>
        <mxCell id="53nCyL3O7BwKtmrme-u4-114" value="&lt;font style=&quot;font-size: 12px;&quot;&gt;&lt;b&gt;4&lt;/b&gt;&lt;/font&gt;" style="ellipse;whiteSpace=wrap;html=1;aspect=fixed;fillColor=#FFFFFF;strokeColor=#FF8000;fontColor=#000000;" parent="WIpk6FryHPEbsidNHlYV-15" vertex="1">
          <mxGeometry x="1129.3201639344263" y="687.0622474434347" width="28.156062525637573" height="28.156062525637573" as="geometry" />
        </mxCell>
        <mxCell id="53nCyL3O7BwKtmrme-u4-115" value="&lt;font style=&quot;font-size: 12px;&quot;&gt;&lt;b&gt;5&lt;/b&gt;&lt;/font&gt;" style="ellipse;whiteSpace=wrap;html=1;aspect=fixed;fillColor=#FFFFFF;strokeColor=#FF8000;fontColor=#000000;" parent="WIpk6FryHPEbsidNHlYV-15" vertex="1">
          <mxGeometry x="1369.1234426229507" y="687.0622474434347" width="28.156062525637573" height="28.156062525637573" as="geometry" />
        </mxCell>
        <mxCell id="53nCyL3O7BwKtmrme-u4-117" value="&lt;font style=&quot;font-size: 12px;&quot;&gt;&lt;b&gt;6&lt;/b&gt;&lt;/font&gt;" style="ellipse;whiteSpace=wrap;html=1;aspect=fixed;fillColor=#FFFFFF;strokeColor=#FF8000;fontColor=#000000;" parent="WIpk6FryHPEbsidNHlYV-15" vertex="1">
          <mxGeometry x="1443.025081967213" y="947.4599191818991" width="28.156062525637573" height="28.156062525637573" as="geometry" />
        </mxCell>
        <mxCell id="53nCyL3O7BwKtmrme-u4-121" value="&lt;font style=&quot;font-size: 12px;&quot;&gt;&lt;b&gt;7&lt;/b&gt;&lt;/font&gt;" style="ellipse;whiteSpace=wrap;html=1;aspect=fixed;fillColor=#FFFFFF;strokeColor=#FF8000;fontColor=#000000;" parent="WIpk6FryHPEbsidNHlYV-15" vertex="1">
          <mxGeometry x="1699.418524590164" y="717.6972676479598" width="28.156062525637573" height="28.156062525637573" as="geometry" />
        </mxCell>
        <mxCell id="53nCyL3O7BwKtmrme-u4-129" value="" style="endArrow=none;html=1;rounded=0;exitX=1;exitY=0.5;exitDx=0;exitDy=0;entryX=0;entryY=0.5;entryDx=0;entryDy=0;" parent="WIpk6FryHPEbsidNHlYV-15" source="53nCyL3O7BwKtmrme-u4-107" target="53nCyL3O7BwKtmrme-u4-1" edge="1">
          <mxGeometry width="50" height="50" relative="1" as="geometry">
            <mxPoint x="1186.6316393442623" y="1008.7299595909495" as="sourcePoint" />
            <mxPoint x="1262.041475409836" y="932.1424090796364" as="targetPoint" />
          </mxGeometry>
        </mxCell>
        <mxCell id="53nCyL3O7BwKtmrme-u4-150" value="" style="endArrow=classic;html=1;rounded=0;entryX=0.75;entryY=0;entryDx=0;entryDy=0;" parent="WIpk6FryHPEbsidNHlYV-15" source="53nCyL3O7BwKtmrme-u4-73" target="53nCyL3O7BwKtmrme-u4-84" edge="1">
          <mxGeometry width="50" height="50" relative="1" as="geometry">
            <mxPoint x="1379.6808196721313" y="840.2373484660608" as="sourcePoint" />
            <mxPoint x="1548.5988524590166" y="1016.3887146420807" as="targetPoint" />
          </mxGeometry>
        </mxCell>
        <mxCell id="53nCyL3O7BwKtmrme-u4-151" value="API Request &amp;nbsp;Data" style="edgeLabel;html=1;align=center;verticalAlign=middle;resizable=0;points=[];fontSize=18;" parent="53nCyL3O7BwKtmrme-u4-150" vertex="1" connectable="0">
          <mxGeometry x="-0.1528" y="4" relative="1" as="geometry">
            <mxPoint x="15" y="-9" as="offset" />
          </mxGeometry>
        </mxCell>
        <mxCell id="53nCyL3O7BwKtmrme-u4-152" value="&lt;font style=&quot;font-size: 12px;&quot;&gt;&lt;b&gt;9&lt;/b&gt;&lt;/font&gt;" style="ellipse;whiteSpace=wrap;html=1;aspect=fixed;fillColor=#FFFFFF;strokeColor=#FF8000;fontColor=#000000;" parent="WIpk6FryHPEbsidNHlYV-15" vertex="1">
          <mxGeometry x="1473.1890163934427" y="824.9198383637981" width="28.156062525637573" height="28.156062525637573" as="geometry" />
        </mxCell>
        <mxCell id="WIpk6FryHPEbsidNHlYV-13" value="" style="rounded=0;whiteSpace=wrap;html=1;" vertex="1" parent="WIpk6FryHPEbsidNHlYV-15">
          <mxGeometry x="1163.73" y="540" width="120" height="60" as="geometry" />
        </mxCell>
        <mxCell id="53nCyL3O7BwKtmrme-u4-56" value="" style="endArrow=classic;html=1;rounded=0;exitX=0;exitY=0.5;exitDx=0;exitDy=0;" parent="WIpk6FryHPEbsidNHlYV-15" source="53nCyL3O7BwKtmrme-u4-1" target="53nCyL3O7BwKtmrme-u4-49" edge="1">
          <mxGeometry width="50" height="50" relative="1" as="geometry">
            <mxPoint x="649.713606557377" y="794.284818159273" as="sourcePoint" />
            <mxPoint x="283.0603268271311" y="896.9138346165887" as="targetPoint" />
          </mxGeometry>
        </mxCell>
        <mxCell id="53nCyL3O7BwKtmrme-u4-59" value="&lt;font style=&quot;font-size: 18px;&quot;&gt;Download Report&lt;/font&gt;" style="edgeLabel;html=1;align=center;verticalAlign=middle;resizable=0;points=[];" parent="53nCyL3O7BwKtmrme-u4-56" vertex="1" connectable="0">
          <mxGeometry x="0.2254" relative="1" as="geometry">
            <mxPoint x="-13" y="3" as="offset" />
          </mxGeometry>
        </mxCell>
        <mxCell id="53nCyL3O7BwKtmrme-u4-54" value="" style="endArrow=classic;html=1;rounded=0;exitX=0;exitY=0.5;exitDx=0;exitDy=0;" parent="WIpk6FryHPEbsidNHlYV-15" source="53nCyL3O7BwKtmrme-u4-1" target="53nCyL3O7BwKtmrme-u4-46" edge="1">
          <mxGeometry width="50" height="50" relative="1" as="geometry">
            <mxPoint x="523.025081967213" y="733.0147777502224" as="sourcePoint" />
            <mxPoint x="277.16464984141976" y="662.0165036046888" as="targetPoint" />
          </mxGeometry>
        </mxCell>
        <mxCell id="53nCyL3O7BwKtmrme-u4-57" value="&lt;font style=&quot;font-size: 18px;&quot;&gt;Download Report&lt;/font&gt;" style="edgeLabel;html=1;align=center;verticalAlign=middle;resizable=0;points=[];" parent="53nCyL3O7BwKtmrme-u4-54" vertex="1" connectable="0">
          <mxGeometry x="0.2509" y="-1" relative="1" as="geometry">
            <mxPoint x="-8" y="-3" as="offset" />
          </mxGeometry>
        </mxCell>
        <mxCell id="53nCyL3O7BwKtmrme-u4-55" value="" style="endArrow=classic;html=1;rounded=0;exitX=0;exitY=0.5;exitDx=0;exitDy=0;" parent="WIpk6FryHPEbsidNHlYV-15" source="53nCyL3O7BwKtmrme-u4-107" target="53nCyL3O7BwKtmrme-u4-48" edge="1">
          <mxGeometry width="50" height="50" relative="1" as="geometry">
            <mxPoint x="649.713606557377" y="794.284818159273" as="sourcePoint" />
            <mxPoint x="281.30217320004385" y="777.015893127325" as="targetPoint" />
          </mxGeometry>
        </mxCell>
        <mxCell id="53nCyL3O7BwKtmrme-u4-58" value="&lt;font style=&quot;font-size: 18px;&quot;&gt;Download Report&lt;/font&gt;" style="edgeLabel;html=1;align=center;verticalAlign=middle;resizable=0;points=[];" parent="53nCyL3O7BwKtmrme-u4-55" vertex="1" connectable="0">
          <mxGeometry x="0.2799" relative="1" as="geometry">
            <mxPoint x="-6" as="offset" />
          </mxGeometry>
        </mxCell>
        <mxCell id="53nCyL3O7BwKtmrme-u4-81" value="&lt;font style=&quot;font-size: 36px;&quot;&gt;W.E.A.T.H.E.R.&lt;/font&gt;&lt;div&gt;&lt;div&gt;&lt;font style=&quot;font-size: 27px;&quot;&gt;Weather Event Assimilation,Tracking, And Hazardous Event Reporting&lt;/font&gt;&lt;/div&gt;&lt;/div&gt;" style="text;html=1;align=center;verticalAlign=middle;resizable=0;points=[];autosize=1;strokeColor=none;fillColor=none;" parent="WIpk6FryHPEbsidNHlYV-15" vertex="1">
          <mxGeometry x="612.73" y="256.7094046184655" width="860" height="90" as="geometry" />
        </mxCell>
      </root>
    </mxGraphModel>
  </diagram>
</mxfile>
